<?xml version="1.0" encoding="utf-8"?>
<svg xmlns="http://www.w3.org/2000/svg" xmlns:xlink="http://www.w3.org/1999/xlink" width="600" height="400" viewBox="0 0 2400 1600">
<defs>
  <clipPath id="clip990">
    <rect x="0" y="0" width="2400" height="1600"/>
  </clipPath>
</defs>
<path clip-path="url(#clip990)" d="M0 1600 L2400 1600 L2400 0 L0 0  Z" fill="#ffffff" fill-rule="evenodd" fill-opacity="1"/>
<defs>
  <clipPath id="clip991">
    <rect x="480" y="0" width="1681" height="1600"/>
  </clipPath>
</defs>
<path clip-path="url(#clip990)" d="M313.243 1375.66 L2352.76 1375.66 L2352.76 47.2441 L313.243 47.2441  Z" fill="#ffffff" fill-rule="evenodd" fill-opacity="1"/>
<defs>
  <clipPath id="clip992">
    <rect x="313" y="47" width="2041" height="1329"/>
  </clipPath>
</defs>
<polyline clip-path="url(#clip992)" style="stroke:#000000; stroke-linecap:round; stroke-linejoin:round; stroke-width:2; stroke-opacity:0.1; fill:none" points="370.965,1375.66 370.965,47.2441 "/>
<polyline clip-path="url(#clip992)" style="stroke:#000000; stroke-linecap:round; stroke-linejoin:round; stroke-width:2; stroke-opacity:0.1; fill:none" points="755.778,1375.66 755.778,47.2441 "/>
<polyline clip-path="url(#clip992)" style="stroke:#000000; stroke-linecap:round; stroke-linejoin:round; stroke-width:2; stroke-opacity:0.1; fill:none" points="1140.59,1375.66 1140.59,47.2441 "/>
<polyline clip-path="url(#clip992)" style="stroke:#000000; stroke-linecap:round; stroke-linejoin:round; stroke-width:2; stroke-opacity:0.1; fill:none" points="1525.41,1375.66 1525.41,47.2441 "/>
<polyline clip-path="url(#clip992)" style="stroke:#000000; stroke-linecap:round; stroke-linejoin:round; stroke-width:2; stroke-opacity:0.1; fill:none" points="1910.22,1375.66 1910.22,47.2441 "/>
<polyline clip-path="url(#clip992)" style="stroke:#000000; stroke-linecap:round; stroke-linejoin:round; stroke-width:2; stroke-opacity:0.1; fill:none" points="2295.03,1375.66 2295.03,47.2441 "/>
<polyline clip-path="url(#clip990)" style="stroke:#000000; stroke-linecap:round; stroke-linejoin:round; stroke-width:4; stroke-opacity:1; fill:none" points="313.243,1375.66 2352.76,1375.66 "/>
<polyline clip-path="url(#clip990)" style="stroke:#000000; stroke-linecap:round; stroke-linejoin:round; stroke-width:4; stroke-opacity:1; fill:none" points="370.965,1375.66 370.965,1356.76 "/>
<polyline clip-path="url(#clip990)" style="stroke:#000000; stroke-linecap:round; stroke-linejoin:round; stroke-width:4; stroke-opacity:1; fill:none" points="755.778,1375.66 755.778,1356.76 "/>
<polyline clip-path="url(#clip990)" style="stroke:#000000; stroke-linecap:round; stroke-linejoin:round; stroke-width:4; stroke-opacity:1; fill:none" points="1140.59,1375.66 1140.59,1356.76 "/>
<polyline clip-path="url(#clip990)" style="stroke:#000000; stroke-linecap:round; stroke-linejoin:round; stroke-width:4; stroke-opacity:1; fill:none" points="1525.41,1375.66 1525.41,1356.76 "/>
<polyline clip-path="url(#clip990)" style="stroke:#000000; stroke-linecap:round; stroke-linejoin:round; stroke-width:4; stroke-opacity:1; fill:none" points="1910.22,1375.66 1910.22,1356.76 "/>
<polyline clip-path="url(#clip990)" style="stroke:#000000; stroke-linecap:round; stroke-linejoin:round; stroke-width:4; stroke-opacity:1; fill:none" points="2295.03,1375.66 2295.03,1356.76 "/>
<path clip-path="url(#clip990)" d="M370.965 1409.51 Q366.451 1409.51 364.165 1413.96 Q361.908 1418.39 361.908 1427.3 Q361.908 1436.19 364.165 1440.64 Q366.451 1445.07 370.965 1445.07 Q375.507 1445.07 377.764 1440.64 Q380.05 1436.19 380.05 1427.3 Q380.05 1418.39 377.764 1413.96 Q375.507 1409.51 370.965 1409.51 M370.965 1404.88 Q378.227 1404.88 382.047 1410.64 Q385.895 1416.37 385.895 1427.3 Q385.895 1438.21 382.047 1443.97 Q378.227 1449.7 370.965 1449.7 Q363.702 1449.7 359.854 1443.97 Q356.034 1438.21 356.034 1427.3 Q356.034 1416.37 359.854 1410.64 Q363.702 1404.88 370.965 1404.88 Z" fill="#000000" fill-rule="nonzero" fill-opacity="1" /><path clip-path="url(#clip990)" d="M743.756 1443.94 L753.304 1443.94 L753.304 1410.98 L742.917 1413.07 L742.917 1407.74 L753.247 1405.66 L759.091 1405.66 L759.091 1443.94 L768.64 1443.94 L768.64 1448.86 L743.756 1448.86 L743.756 1443.94 Z" fill="#000000" fill-rule="nonzero" fill-opacity="1" /><path clip-path="url(#clip990)" d="M1133.91 1443.94 L1154.31 1443.94 L1154.31 1448.86 L1126.88 1448.86 L1126.88 1443.94 Q1130.2 1440.5 1135.93 1434.71 Q1141.69 1428.89 1143.17 1427.22 Q1145.97 1424.06 1147.07 1421.89 Q1148.2 1419.69 1148.2 1417.58 Q1148.2 1414.14 1145.77 1411.97 Q1143.37 1409.8 1139.49 1409.8 Q1136.74 1409.8 1133.68 1410.75 Q1130.64 1411.71 1127.17 1413.65 L1127.17 1407.74 Q1130.7 1406.33 1133.76 1405.6 Q1136.83 1404.88 1139.38 1404.88 Q1146.09 1404.88 1150.08 1408.24 Q1154.08 1411.59 1154.08 1417.2 Q1154.08 1419.87 1153.06 1422.27 Q1152.08 1424.64 1149.45 1427.88 Q1148.72 1428.72 1144.85 1432.74 Q1140.97 1436.74 1133.91 1443.94 Z" fill="#000000" fill-rule="nonzero" fill-opacity="1" /><path clip-path="url(#clip990)" d="M1530.72 1425.57 Q1534.91 1426.46 1537.26 1429.3 Q1539.63 1432.14 1539.63 1436.3 Q1539.63 1442.7 1535.23 1446.2 Q1530.83 1449.7 1522.73 1449.7 Q1520.01 1449.7 1517.12 1449.15 Q1514.25 1448.63 1511.18 1447.56 L1511.18 1441.92 Q1513.62 1443.33 1516.51 1444.06 Q1519.4 1444.78 1522.56 1444.78 Q1528.05 1444.78 1530.92 1442.61 Q1533.81 1440.44 1533.81 1436.3 Q1533.81 1432.48 1531.12 1430.34 Q1528.46 1428.17 1523.68 1428.17 L1518.65 1428.17 L1518.65 1423.37 L1523.92 1423.37 Q1528.23 1423.37 1530.51 1421.66 Q1532.8 1419.92 1532.8 1416.68 Q1532.8 1413.36 1530.43 1411.59 Q1528.08 1409.8 1523.68 1409.8 Q1521.28 1409.8 1518.53 1410.32 Q1515.79 1410.84 1512.49 1411.94 L1512.49 1406.73 Q1515.81 1405.8 1518.71 1405.34 Q1521.63 1404.88 1524.21 1404.88 Q1530.86 1404.88 1534.74 1407.92 Q1538.61 1410.93 1538.61 1416.08 Q1538.61 1419.66 1536.56 1422.15 Q1534.51 1424.61 1530.72 1425.57 Z" fill="#000000" fill-rule="nonzero" fill-opacity="1" /><path clip-path="url(#clip990)" d="M1913.98 1410.75 L1899.22 1433.81 L1913.98 1433.81 L1913.98 1410.75 M1912.45 1405.66 L1919.8 1405.66 L1919.8 1433.81 L1925.96 1433.81 L1925.96 1438.67 L1919.8 1438.67 L1919.8 1448.86 L1913.98 1448.86 L1913.98 1438.67 L1894.48 1438.67 L1894.48 1433.03 L1912.45 1405.66 Z" fill="#000000" fill-rule="nonzero" fill-opacity="1" /><path clip-path="url(#clip990)" d="M2282.88 1405.66 L2305.83 1405.66 L2305.83 1410.58 L2288.23 1410.58 L2288.23 1421.17 Q2289.51 1420.73 2290.78 1420.53 Q2292.05 1420.3 2293.33 1420.3 Q2300.56 1420.3 2304.78 1424.27 Q2309.01 1428.23 2309.01 1435 Q2309.01 1441.97 2304.67 1445.85 Q2300.33 1449.7 2292.43 1449.7 Q2289.71 1449.7 2286.87 1449.24 Q2284.07 1448.77 2281.06 1447.85 L2281.06 1441.97 Q2283.66 1443.39 2286.44 1444.09 Q2289.22 1444.78 2292.31 1444.78 Q2297.32 1444.78 2300.24 1442.15 Q2303.16 1439.51 2303.16 1435 Q2303.16 1430.49 2300.24 1427.85 Q2297.32 1425.22 2292.31 1425.22 Q2289.97 1425.22 2287.63 1425.74 Q2285.31 1426.26 2282.88 1427.36 L2282.88 1405.66 Z" fill="#000000" fill-rule="nonzero" fill-opacity="1" /><path clip-path="url(#clip990)" d="M1348.4 1514.46 Q1348.4 1516.1 1347.64 1516.51 Q1346.88 1516.86 1344.77 1516.86 L1333.53 1516.86 L1324.63 1552.23 Q1323.92 1555.33 1323.92 1557.96 Q1323.92 1560.89 1324.8 1562.18 Q1325.74 1563.47 1327.67 1563.47 Q1331.48 1563.47 1335.58 1560.01 Q1339.73 1556.56 1343.25 1548.13 Q1343.72 1547.01 1343.95 1546.78 Q1344.24 1546.49 1345 1546.49 Q1346.47 1546.49 1346.47 1547.66 Q1346.47 1548.07 1345.65 1549.94 Q1344.89 1551.82 1343.19 1554.57 Q1341.55 1557.32 1339.38 1559.9 Q1337.27 1562.47 1334.05 1564.35 Q1330.83 1566.16 1327.38 1566.16 Q1322.52 1566.16 1319.42 1563.06 Q1316.37 1559.96 1316.37 1555.1 Q1316.37 1553.51 1317.6 1548.48 Q1318.83 1543.38 1325.51 1516.86 L1314.91 1516.86 Q1313.44 1516.86 1312.86 1516.8 Q1312.33 1516.74 1311.92 1516.45 Q1311.57 1516.1 1311.57 1515.39 Q1311.57 1514.28 1312.04 1513.81 Q1312.51 1513.29 1313.09 1513.23 Q1313.74 1513.11 1315.2 1513.11 L1326.44 1513.11 L1331.13 1494.08 Q1331.59 1492.21 1332.77 1491.15 Q1334 1490.04 1334.7 1489.92 Q1335.4 1489.75 1335.93 1489.75 Q1337.51 1489.75 1338.45 1490.62 Q1339.38 1491.44 1339.38 1492.97 Q1339.38 1493.79 1334.46 1513.11 L1345 1513.11 Q1346.35 1513.11 1346.88 1513.17 Q1347.46 1513.23 1347.93 1513.52 Q1348.4 1513.81 1348.4 1514.46 Z" fill="#000000" fill-rule="nonzero" fill-opacity="1" /><polyline clip-path="url(#clip992)" style="stroke:#000000; stroke-linecap:round; stroke-linejoin:round; stroke-width:2; stroke-opacity:0.1; fill:none" points="313.243,1338.06 2352.76,1338.06 "/>
<polyline clip-path="url(#clip992)" style="stroke:#000000; stroke-linecap:round; stroke-linejoin:round; stroke-width:2; stroke-opacity:0.1; fill:none" points="313.243,1024.76 2352.76,1024.76 "/>
<polyline clip-path="url(#clip992)" style="stroke:#000000; stroke-linecap:round; stroke-linejoin:round; stroke-width:2; stroke-opacity:0.1; fill:none" points="313.243,711.452 2352.76,711.452 "/>
<polyline clip-path="url(#clip992)" style="stroke:#000000; stroke-linecap:round; stroke-linejoin:round; stroke-width:2; stroke-opacity:0.1; fill:none" points="313.243,398.146 2352.76,398.146 "/>
<polyline clip-path="url(#clip992)" style="stroke:#000000; stroke-linecap:round; stroke-linejoin:round; stroke-width:2; stroke-opacity:0.1; fill:none" points="313.243,84.8408 2352.76,84.8408 "/>
<polyline clip-path="url(#clip990)" style="stroke:#000000; stroke-linecap:round; stroke-linejoin:round; stroke-width:4; stroke-opacity:1; fill:none" points="313.243,1375.66 313.243,47.2441 "/>
<polyline clip-path="url(#clip990)" style="stroke:#000000; stroke-linecap:round; stroke-linejoin:round; stroke-width:4; stroke-opacity:1; fill:none" points="313.243,1338.06 332.14,1338.06 "/>
<polyline clip-path="url(#clip990)" style="stroke:#000000; stroke-linecap:round; stroke-linejoin:round; stroke-width:4; stroke-opacity:1; fill:none" points="313.243,1024.76 332.14,1024.76 "/>
<polyline clip-path="url(#clip990)" style="stroke:#000000; stroke-linecap:round; stroke-linejoin:round; stroke-width:4; stroke-opacity:1; fill:none" points="313.243,711.452 332.14,711.452 "/>
<polyline clip-path="url(#clip990)" style="stroke:#000000; stroke-linecap:round; stroke-linejoin:round; stroke-width:4; stroke-opacity:1; fill:none" points="313.243,398.146 332.14,398.146 "/>
<polyline clip-path="url(#clip990)" style="stroke:#000000; stroke-linecap:round; stroke-linejoin:round; stroke-width:4; stroke-opacity:1; fill:none" points="313.243,84.8408 332.14,84.8408 "/>
<path clip-path="url(#clip990)" d="M168.071 1320.31 Q163.557 1320.31 161.271 1324.77 Q159.014 1329.19 159.014 1338.11 Q159.014 1346.99 161.271 1351.45 Q163.557 1355.87 168.071 1355.87 Q172.613 1355.87 174.87 1351.45 Q177.156 1346.99 177.156 1338.11 Q177.156 1329.19 174.87 1324.77 Q172.613 1320.31 168.071 1320.31 M168.071 1315.68 Q175.333 1315.68 179.153 1321.44 Q183.001 1327.17 183.001 1338.11 Q183.001 1349.02 179.153 1354.77 Q175.333 1360.5 168.071 1360.5 Q160.808 1360.5 156.96 1354.77 Q153.14 1349.02 153.14 1338.11 Q153.14 1327.17 156.96 1321.44 Q160.808 1315.68 168.071 1315.68 Z" fill="#000000" fill-rule="nonzero" fill-opacity="1" /><path clip-path="url(#clip990)" d="M193.273 1352.31 L199.378 1352.31 L199.378 1359.66 L193.273 1359.66 L193.273 1352.31 Z" fill="#000000" fill-rule="nonzero" fill-opacity="1" /><path clip-path="url(#clip990)" d="M224.61 1320.31 Q220.096 1320.31 217.81 1324.77 Q215.553 1329.19 215.553 1338.11 Q215.553 1346.99 217.81 1351.45 Q220.096 1355.87 224.61 1355.87 Q229.152 1355.87 231.409 1351.45 Q233.695 1346.99 233.695 1338.11 Q233.695 1329.19 231.409 1324.77 Q229.152 1320.31 224.61 1320.31 M224.61 1315.68 Q231.872 1315.68 235.692 1321.44 Q239.54 1327.17 239.54 1338.11 Q239.54 1349.02 235.692 1354.77 Q231.872 1360.5 224.61 1360.5 Q217.347 1360.5 213.499 1354.77 Q209.679 1349.02 209.679 1338.11 Q209.679 1327.17 213.499 1321.44 Q217.347 1315.68 224.61 1315.68 Z" fill="#000000" fill-rule="nonzero" fill-opacity="1" /><path clip-path="url(#clip990)" d="M262.312 1320.31 Q257.798 1320.31 255.512 1324.77 Q253.255 1329.19 253.255 1338.11 Q253.255 1346.99 255.512 1351.45 Q257.798 1355.87 262.312 1355.87 Q266.855 1355.87 269.112 1351.45 Q271.398 1346.99 271.398 1338.11 Q271.398 1329.19 269.112 1324.77 Q266.855 1320.31 262.312 1320.31 M262.312 1315.68 Q269.575 1315.68 273.394 1321.44 Q277.243 1327.17 277.243 1338.11 Q277.243 1349.02 273.394 1354.77 Q269.575 1360.5 262.312 1360.5 Q255.049 1360.5 251.201 1354.77 Q247.382 1349.02 247.382 1338.11 Q247.382 1327.17 251.201 1321.44 Q255.049 1315.68 262.312 1315.68 Z" fill="#000000" fill-rule="nonzero" fill-opacity="1" /><path clip-path="url(#clip990)" d="M169.315 1007.01 Q164.801 1007.01 162.515 1011.46 Q160.258 1015.89 160.258 1024.8 Q160.258 1033.68 162.515 1038.14 Q164.801 1042.57 169.315 1042.57 Q173.858 1042.57 176.115 1038.14 Q178.4 1033.68 178.4 1024.8 Q178.4 1015.89 176.115 1011.46 Q173.858 1007.01 169.315 1007.01 M169.315 1002.38 Q176.578 1002.38 180.397 1008.13 Q184.245 1013.86 184.245 1024.8 Q184.245 1035.71 180.397 1041.47 Q176.578 1047.2 169.315 1047.2 Q162.052 1047.2 158.204 1041.47 Q154.384 1035.71 154.384 1024.8 Q154.384 1013.86 158.204 1008.13 Q162.052 1002.38 169.315 1002.38 Z" fill="#000000" fill-rule="nonzero" fill-opacity="1" /><path clip-path="url(#clip990)" d="M194.517 1039.01 L200.623 1039.01 L200.623 1046.36 L194.517 1046.36 L194.517 1039.01 Z" fill="#000000" fill-rule="nonzero" fill-opacity="1" /><path clip-path="url(#clip990)" d="M218.389 1041.44 L238.788 1041.44 L238.788 1046.36 L211.357 1046.36 L211.357 1041.44 Q214.685 1038 220.414 1032.21 Q226.172 1026.39 227.648 1024.71 Q230.455 1021.56 231.554 1019.39 Q232.683 1017.19 232.683 1015.08 Q232.683 1011.64 230.252 1009.47 Q227.85 1007.3 223.973 1007.3 Q221.224 1007.3 218.157 1008.25 Q215.119 1009.2 211.647 1011.14 L211.647 1005.24 Q215.177 1003.82 218.244 1003.1 Q221.311 1002.38 223.857 1002.38 Q230.57 1002.38 234.563 1005.73 Q238.556 1009.09 238.556 1014.7 Q238.556 1017.36 237.544 1019.77 Q236.56 1022.14 233.927 1025.38 Q233.203 1026.22 229.326 1030.24 Q225.449 1034.23 218.389 1041.44 Z" fill="#000000" fill-rule="nonzero" fill-opacity="1" /><path clip-path="url(#clip990)" d="M251.114 1003.16 L274.06 1003.16 L274.06 1008.08 L256.467 1008.08 L256.467 1018.67 Q257.74 1018.23 259.013 1018.03 Q260.287 1017.8 261.56 1017.8 Q268.793 1017.8 273.018 1021.76 Q277.243 1025.73 277.243 1032.5 Q277.243 1039.47 272.902 1043.35 Q268.562 1047.2 260.663 1047.2 Q257.943 1047.2 255.107 1046.73 Q252.301 1046.27 249.291 1045.34 L249.291 1039.47 Q251.895 1040.89 254.673 1041.58 Q257.451 1042.28 260.547 1042.28 Q265.553 1042.28 268.475 1039.64 Q271.398 1037.01 271.398 1032.5 Q271.398 1027.98 268.475 1025.35 Q265.553 1022.72 260.547 1022.72 Q258.203 1022.72 255.86 1023.24 Q253.545 1023.76 251.114 1024.86 L251.114 1003.16 Z" fill="#000000" fill-rule="nonzero" fill-opacity="1" /><path clip-path="url(#clip990)" d="M168.071 693.7 Q163.557 693.7 161.271 698.156 Q159.014 702.583 159.014 711.495 Q159.014 720.378 161.271 724.834 Q163.557 729.261 168.071 729.261 Q172.613 729.261 174.87 724.834 Q177.156 720.378 177.156 711.495 Q177.156 702.583 174.87 698.156 Q172.613 693.7 168.071 693.7 M168.071 689.071 Q175.333 689.071 179.153 694.829 Q183.001 700.558 183.001 711.495 Q183.001 722.404 179.153 728.162 Q175.333 733.891 168.071 733.891 Q160.808 733.891 156.96 728.162 Q153.14 722.404 153.14 711.495 Q153.14 700.558 156.96 694.829 Q160.808 689.071 168.071 689.071 Z" fill="#000000" fill-rule="nonzero" fill-opacity="1" /><path clip-path="url(#clip990)" d="M193.273 725.702 L199.378 725.702 L199.378 733.052 L193.273 733.052 L193.273 725.702 Z" fill="#000000" fill-rule="nonzero" fill-opacity="1" /><path clip-path="url(#clip990)" d="M212.168 689.852 L235.113 689.852 L235.113 694.771 L217.521 694.771 L217.521 705.361 Q218.794 704.927 220.067 704.725 Q221.34 704.493 222.613 704.493 Q229.847 704.493 234.071 708.457 Q238.296 712.421 238.296 719.192 Q238.296 726.165 233.956 730.043 Q229.615 733.891 221.716 733.891 Q218.996 733.891 216.161 733.428 Q213.354 732.965 210.345 732.039 L210.345 726.165 Q212.949 727.583 215.727 728.278 Q218.504 728.972 221.6 728.972 Q226.606 728.972 229.529 726.339 Q232.451 723.706 232.451 719.192 Q232.451 714.678 229.529 712.045 Q226.606 709.412 221.6 709.412 Q219.257 709.412 216.913 709.933 Q214.598 710.454 212.168 711.553 L212.168 689.852 Z" fill="#000000" fill-rule="nonzero" fill-opacity="1" /><path clip-path="url(#clip990)" d="M262.312 693.7 Q257.798 693.7 255.512 698.156 Q253.255 702.583 253.255 711.495 Q253.255 720.378 255.512 724.834 Q257.798 729.261 262.312 729.261 Q266.855 729.261 269.112 724.834 Q271.398 720.378 271.398 711.495 Q271.398 702.583 269.112 698.156 Q266.855 693.7 262.312 693.7 M262.312 689.071 Q269.575 689.071 273.394 694.829 Q277.243 700.558 277.243 711.495 Q277.243 722.404 273.394 728.162 Q269.575 733.891 262.312 733.891 Q255.049 733.891 251.201 728.162 Q247.382 722.404 247.382 711.495 Q247.382 700.558 251.201 694.829 Q255.049 689.071 262.312 689.071 Z" fill="#000000" fill-rule="nonzero" fill-opacity="1" /><path clip-path="url(#clip990)" d="M169.315 380.395 Q164.801 380.395 162.515 384.851 Q160.258 389.278 160.258 398.19 Q160.258 407.073 162.515 411.529 Q164.801 415.956 169.315 415.956 Q173.858 415.956 176.115 411.529 Q178.4 407.073 178.4 398.19 Q178.4 389.278 176.115 384.851 Q173.858 380.395 169.315 380.395 M169.315 375.765 Q176.578 375.765 180.397 381.523 Q184.245 387.252 184.245 398.19 Q184.245 409.098 180.397 414.856 Q176.578 420.585 169.315 420.585 Q162.052 420.585 158.204 414.856 Q154.384 409.098 154.384 398.19 Q154.384 387.252 158.204 381.523 Q162.052 375.765 169.315 375.765 Z" fill="#000000" fill-rule="nonzero" fill-opacity="1" /><path clip-path="url(#clip990)" d="M194.517 412.397 L200.623 412.397 L200.623 419.746 L194.517 419.746 L194.517 412.397 Z" fill="#000000" fill-rule="nonzero" fill-opacity="1" /><path clip-path="url(#clip990)" d="M211.878 376.546 L239.656 376.546 L239.656 379.035 L223.973 419.746 L217.868 419.746 L232.625 381.465 L211.878 381.465 L211.878 376.546 Z" fill="#000000" fill-rule="nonzero" fill-opacity="1" /><path clip-path="url(#clip990)" d="M251.114 376.546 L274.06 376.546 L274.06 381.465 L256.467 381.465 L256.467 392.056 Q257.74 391.622 259.013 391.419 Q260.287 391.187 261.56 391.187 Q268.793 391.187 273.018 395.152 Q277.243 399.116 277.243 405.886 Q277.243 412.86 272.902 416.737 Q268.562 420.585 260.663 420.585 Q257.943 420.585 255.107 420.123 Q252.301 419.66 249.291 418.734 L249.291 412.86 Q251.895 414.278 254.673 414.972 Q257.451 415.667 260.547 415.667 Q265.553 415.667 268.475 413.033 Q271.398 410.4 271.398 405.886 Q271.398 401.373 268.475 398.74 Q265.553 396.106 260.547 396.106 Q258.203 396.106 255.86 396.627 Q253.545 397.148 251.114 398.248 L251.114 376.546 Z" fill="#000000" fill-rule="nonzero" fill-opacity="1" /><path clip-path="url(#clip990)" d="M156.583 101.522 L166.132 101.522 L166.132 68.5648 L155.744 70.6481 L155.744 65.3241 L166.074 63.2408 L171.919 63.2408 L171.919 101.522 L181.468 101.522 L181.468 106.441 L156.583 106.441 L156.583 101.522 Z" fill="#000000" fill-rule="nonzero" fill-opacity="1" /><path clip-path="url(#clip990)" d="M193.273 99.0913 L199.378 99.0913 L199.378 106.441 L193.273 106.441 L193.273 99.0913 Z" fill="#000000" fill-rule="nonzero" fill-opacity="1" /><path clip-path="url(#clip990)" d="M224.61 67.0891 Q220.096 67.0891 217.81 71.5451 Q215.553 75.9722 215.553 84.8842 Q215.553 93.7672 217.81 98.2232 Q220.096 102.65 224.61 102.65 Q229.152 102.65 231.409 98.2232 Q233.695 93.7672 233.695 84.8842 Q233.695 75.9722 231.409 71.5451 Q229.152 67.0891 224.61 67.0891 M224.61 62.4595 Q231.872 62.4595 235.692 68.2176 Q239.54 73.9467 239.54 84.8842 Q239.54 95.7927 235.692 101.551 Q231.872 107.28 224.61 107.28 Q217.347 107.28 213.499 101.551 Q209.679 95.7927 209.679 84.8842 Q209.679 73.9467 213.499 68.2176 Q217.347 62.4595 224.61 62.4595 Z" fill="#000000" fill-rule="nonzero" fill-opacity="1" /><path clip-path="url(#clip990)" d="M262.312 67.0891 Q257.798 67.0891 255.512 71.5451 Q253.255 75.9722 253.255 84.8842 Q253.255 93.7672 255.512 98.2232 Q257.798 102.65 262.312 102.65 Q266.855 102.65 269.112 98.2232 Q271.398 93.7672 271.398 84.8842 Q271.398 75.9722 269.112 71.5451 Q266.855 67.0891 262.312 67.0891 M262.312 62.4595 Q269.575 62.4595 273.394 68.2176 Q277.243 73.9467 277.243 84.8842 Q277.243 95.7927 273.394 101.551 Q269.575 107.28 262.312 107.28 Q255.049 107.28 251.201 101.551 Q247.382 95.7927 247.382 84.8842 Q247.382 73.9467 251.201 68.2176 Q255.049 62.4595 262.312 62.4595 Z" fill="#000000" fill-rule="nonzero" fill-opacity="1" /><path clip-path="url(#clip990)" d="M49.0875 750.362 Q49.673 750.479 50.727 750.713 Q51.7225 750.947 54.8845 752.001 Q58.0466 753.055 61.2671 754.46 Q64.4292 755.807 68.8794 758.442 Q73.2712 761.019 77.253 764.181 Q78.307 765.059 78.9511 765.235 Q79.5367 765.352 81.469 765.352 Q93.6487 765.352 93.6487 761.663 Q93.6487 761.487 93.6487 761.194 Q93.5901 760.843 93.2973 759.965 Q92.946 759.028 92.419 758.208 Q91.8334 757.388 90.6623 756.451 Q89.4326 755.514 87.7931 754.929 Q86.6219 754.402 86.6219 753.348 Q86.6219 751.943 87.7931 751.943 Q89.9011 751.943 93.1217 754.87 Q96.3423 757.798 96.3423 762.014 Q96.3423 766.055 93.7072 768.924 Q91.0137 771.735 86.2121 772.906 Q96.3423 785.554 96.3423 798.202 Q96.3423 807.102 90.5452 812.372 Q84.6896 817.643 76.0233 817.643 Q67.7083 817.643 59.8032 813.075 Q51.8982 808.449 46.9795 800.954 Q42.0022 793.4 42.0022 785.378 Q42.0022 782.567 42.7634 779.874 Q43.4661 777.18 45.2813 774.487 Q47.0966 771.793 49.8487 769.802 Q52.6008 767.811 56.934 766.582 Q61.2671 765.352 66.7129 765.352 L74.1495 765.352 Q64.3706 757.623 50.3757 753.582 Q48.2677 752.997 48.0335 752.645 Q47.8578 752.411 47.8578 751.825 Q47.8578 751.24 48.2091 750.889 Q48.5019 750.479 48.7947 750.42 L49.0875 750.362 M83.1086 773.374 Q81.0591 773.608 69.6992 773.608 Q67.5327 773.608 66.3615 773.608 Q65.1319 773.608 62.7896 773.725 Q60.4474 773.843 58.9835 774.077 Q57.5196 774.252 55.4115 774.662 Q53.3035 775.072 51.9567 775.658 Q50.6099 776.243 49.0875 777.18 Q47.565 778.059 46.6867 779.23 Q45.8083 780.342 45.2228 781.982 Q44.6372 783.563 44.6372 785.495 Q44.6372 787.896 45.5156 790.414 Q46.3353 792.873 48.9704 796.035 Q51.5468 799.197 55.6458 801.832 Q59.9789 804.585 67.9425 806.693 Q75.8476 808.742 80.5907 808.742 Q86.5634 808.742 90.1353 805.99 Q93.6487 803.238 93.6487 797.968 Q93.6487 785.378 83.1086 773.374 Z" fill="#000000" fill-rule="nonzero" fill-opacity="1" /><path clip-path="url(#clip990)" d="M65.0147 734.464 Q44.7543 734.464 28.4172 726.911 Q21.5661 723.69 15.8276 719.181 Q10.0891 714.672 7.5712 711.686 Q5.05328 708.7 5.05328 707.88 Q5.05328 706.709 6.2244 706.65 Q6.80997 706.65 8.27387 708.231 Q27.9487 727.555 65.0147 727.496 Q102.198 727.496 121.111 708.7 Q123.161 706.65 123.805 706.65 Q124.976 706.65 124.976 707.88 Q124.976 708.7 122.575 711.569 Q120.175 714.438 114.67 718.888 Q109.166 723.339 102.432 726.559 Q86.0949 734.464 65.0147 734.464 Z" fill="#000000" fill-rule="nonzero" fill-opacity="1" /><path clip-path="url(#clip990)" d="M44.6372 660.702 Q46.2768 660.702 46.6867 661.463 Q47.038 662.224 47.038 664.332 L47.038 675.575 L82.4059 684.475 Q85.5094 685.178 88.1444 685.178 Q91.0722 685.178 92.3604 684.3 Q93.6487 683.363 93.6487 681.43 Q93.6487 677.624 90.1939 673.525 Q86.7391 669.368 78.307 665.854 Q77.1944 665.386 76.9602 665.152 Q76.6674 664.859 76.6674 664.098 Q76.6674 662.634 77.8385 662.634 Q78.2484 662.634 80.1222 663.454 Q81.996 664.215 84.7482 665.913 Q87.5003 667.553 90.0768 669.719 Q92.6532 671.827 94.527 675.048 Q96.3423 678.268 96.3423 681.723 Q96.3423 686.583 93.2388 689.687 Q90.1353 692.732 85.2752 692.732 Q83.6941 692.732 78.6583 691.502 Q73.5639 690.272 47.038 683.597 L47.038 694.196 Q47.038 695.66 46.9795 696.245 Q46.9209 696.772 46.6281 697.182 Q46.2768 697.533 45.5741 697.533 Q44.4615 697.533 43.9931 697.065 Q43.4661 696.596 43.4075 696.011 Q43.2904 695.367 43.2904 693.903 L43.2904 682.66 L24.2597 677.976 Q22.3859 677.507 21.3319 676.336 Q20.2193 675.106 20.1022 674.404 Q19.9265 673.701 19.9265 673.174 Q19.9265 671.593 20.8049 670.656 Q21.6247 669.719 23.1471 669.719 Q23.9669 669.719 43.2904 674.638 L43.2904 664.098 Q43.2904 662.751 43.349 662.224 Q43.4075 661.638 43.7003 661.17 Q43.9931 660.702 44.6372 660.702 Z" fill="#000000" fill-rule="nonzero" fill-opacity="1" /><path clip-path="url(#clip990)" d="M123.805 651.312 Q123.22 651.312 121.756 649.79 Q102.081 630.466 65.0147 630.466 Q27.8316 630.466 9.0351 649.029 Q6.86852 651.312 6.2244 651.312 Q5.05328 651.312 5.05328 650.141 Q5.05328 649.321 7.45408 646.452 Q9.85488 643.524 15.3592 639.133 Q20.8634 634.682 27.5974 631.403 Q43.9345 623.498 65.0147 623.498 Q85.2752 623.498 101.612 631.052 Q108.463 634.273 114.202 638.781 Q119.94 643.29 122.458 646.277 Q124.976 649.263 124.976 650.141 Q124.976 651.312 123.805 651.312 Z" fill="#000000" fill-rule="nonzero" fill-opacity="1" /><polyline clip-path="url(#clip992)" style="stroke:#030000; stroke-linecap:round; stroke-linejoin:round; stroke-width:20; stroke-opacity:1; fill:none" points="370.965,1338.06 390.4,841.129 409.835,541.242 429.27,360.268 448.705,251.054 468.14,185.146 487.575,145.373 507.01,121.37 526.445,106.885 545.88,98.1442 565.315,92.869 584.75,89.6856 604.185,87.7645 623.62,86.6052 643.055,85.9055 662.49,85.4833 681.925,85.2285 701.36,85.0748 720.795,84.982 740.23,84.926 759.665,84.8922 779.1,84.8718 798.536,84.8595 817.971,84.8521 837.406,84.8476 856.841,84.8449 876.276,84.8433 895.711,84.8423 915.146,84.8417 934.581,84.8413 954.016,84.8411 973.451,84.841 992.886,84.8409 1012.32,84.8408 1031.76,84.8408 1051.19,84.8408 1070.63,84.8408 1090.06,84.8408 1109.5,84.8408 1128.93,84.8408 1148.37,84.8408 1167.8,84.8408 1187.24,84.8408 1206.67,84.8408 1226.11,84.8408 1245.54,84.8408 1264.98,84.8408 1284.41,84.8408 1303.85,84.8408 1323.28,84.8408 1342.72,84.8408 1362.15,84.8408 1381.59,84.8408 1401.02,84.8408 1420.46,84.8408 1439.89,84.8408 1459.33,84.8408 1478.76,84.8408 1498.2,84.8408 1517.63,84.8408 1537.07,84.8408 1556.5,84.8408 1575.94,84.8408 1595.37,84.8408 1614.81,84.8408 1634.24,84.8408 1653.68,84.8408 1673.11,84.8408 1692.55,84.8408 1711.98,84.8408 1731.42,84.8408 1750.85,84.8408 1770.29,84.8408 1789.72,84.8408 1809.16,84.8408 1828.59,84.8408 1848.03,84.8408 1867.46,84.8408 1886.9,84.8408 1906.33,84.8408 1925.77,84.8408 1945.2,84.8408 1964.64,84.8408 1984.07,84.8408 2003.51,84.8408 2022.94,84.8408 2042.38,84.8408 2061.81,84.8408 2081.25,84.8408 2100.68,84.8408 2120.12,84.8408 2139.55,84.8408 2158.99,84.8408 2178.42,84.8408 2197.86,84.8408 2217.29,84.8408 2236.73,84.8408 2256.16,84.8408 2275.6,84.8408 2295.03,84.8408 "/>
<polyline clip-path="url(#clip992)" style="stroke:#3c1400; stroke-linecap:round; stroke-linejoin:round; stroke-width:20; stroke-opacity:1; fill:none" points="370.965,1338.06 390.4,1220.34 409.835,1113.67 429.27,1017.02 448.705,929.457 468.14,850.116 487.575,778.227 507.01,713.092 526.445,654.075 545.88,600.602 565.315,552.153 584.75,508.254 604.185,468.48 623.62,432.441 643.055,399.788 662.49,370.203 681.925,343.396 701.36,319.108 720.795,297.102 740.23,277.162 759.665,259.096 779.1,242.727 798.536,227.895 817.971,214.457 837.406,202.281 856.841,191.249 876.276,181.253 895.711,172.196 915.146,163.99 934.581,156.555 954.016,149.818 973.451,143.715 992.886,138.184 1012.32,133.173 1031.76,128.633 1051.19,124.519 1070.63,120.792 1090.06,117.415 1109.5,114.355 1128.93,111.582 1148.37,109.07 1167.8,106.794 1187.24,104.732 1206.67,102.863 1226.11,101.17 1245.54,99.6363 1264.98,98.2465 1284.41,96.9872 1303.85,95.8462 1323.28,94.8123 1342.72,93.8756 1362.15,93.0269 1381.59,92.2579 1401.02,91.5612 1420.46,90.9299 1439.89,90.3579 1459.33,89.8396 1478.76,89.37 1498.2,88.9445 1517.63,88.559 1537.07,88.2098 1556.5,87.8933 1575.94,87.6065 1595.37,87.3467 1614.81,87.1113 1634.24,86.898 1653.68,86.7048 1673.11,86.5297 1692.55,86.371 1711.98,86.2273 1731.42,86.097 1750.85,85.979 1770.29,85.8721 1789.72,85.7752 1809.16,85.6874 1828.59,85.6079 1848.03,85.5358 1867.46,85.4705 1886.9,85.4114 1906.33,85.3578 1925.77,85.3092 1945.2,85.2652 1964.64,85.2253 1984.07,85.1892 2003.51,85.1565 2022.94,85.1268 2042.38,85.0999 2061.81,85.0756 2081.25,85.0535 2100.68,85.0336 2120.12,85.0154 2139.55,84.999 2158.99,84.9842 2178.42,84.9707 2197.86,84.9585 2217.29,84.9474 2236.73,84.9374 2256.16,84.9283 2275.6,84.9201 2295.03,84.9127 "/>
<polyline clip-path="url(#clip992)" style="stroke:#742800; stroke-linecap:round; stroke-linejoin:round; stroke-width:20; stroke-opacity:1; fill:none" points="370.965,1338.06 390.4,1261.08 409.835,1188.83 429.27,1121.02 448.705,1057.37 468.14,997.637 487.575,941.569 507.01,888.945 526.445,839.553 545.88,793.195 565.315,749.684 584.75,708.847 604.185,670.517 623.62,634.542 643.055,600.777 662.49,569.086 681.925,539.341 701.36,511.424 720.795,485.221 740.23,460.628 759.665,437.545 779.1,415.88 798.536,395.546 817.971,376.461 837.406,358.549 856.841,341.736 876.276,325.957 895.711,311.146 915.146,297.245 934.581,284.199 954.016,271.953 973.451,260.46 992.886,249.672 1012.32,239.548 1031.76,230.045 1051.19,221.126 1070.63,212.754 1090.06,204.897 1109.5,197.523 1128.93,190.602 1148.37,184.105 1167.8,178.008 1187.24,172.285 1206.67,166.914 1226.11,161.873 1245.54,157.141 1264.98,152.7 1284.41,148.532 1303.85,144.62 1323.28,140.948 1342.72,137.501 1362.15,134.267 1381.59,131.231 1401.02,128.381 1420.46,125.707 1439.89,123.197 1459.33,120.841 1478.76,118.629 1498.2,116.554 1517.63,114.606 1537.07,112.778 1556.5,111.062 1575.94,109.451 1595.37,107.939 1614.81,106.52 1634.24,105.189 1653.68,103.939 1673.11,102.766 1692.55,101.665 1711.98,100.631 1731.42,99.6614 1750.85,98.7511 1770.29,97.8966 1789.72,97.0947 1809.16,96.342 1828.59,95.6355 1848.03,94.9725 1867.46,94.3501 1886.9,93.766 1906.33,93.2178 1925.77,92.7032 1945.2,92.2203 1964.64,91.767 1984.07,91.3416 2003.51,90.9423 2022.94,90.5675 2042.38,90.2157 2061.81,89.8856 2081.25,89.5757 2100.68,89.2848 2120.12,89.0119 2139.55,88.7557 2158.99,88.5152 2178.42,88.2895 2197.86,88.0776 2217.29,87.8788 2236.73,87.6922 2256.16,87.5171 2275.6,87.3527 2295.03,87.1984 "/>
<polyline clip-path="url(#clip992)" style="stroke:#ad3d00; stroke-linecap:round; stroke-linejoin:round; stroke-width:20; stroke-opacity:1; fill:none" points="370.965,1338.06 390.4,1294.43 409.835,1252.32 429.27,1211.68 448.705,1172.45 468.14,1134.58 487.575,1098.04 507.01,1062.76 526.445,1028.72 545.88,995.857 565.315,964.14 584.75,933.528 604.185,903.982 623.62,875.464 643.055,847.939 662.49,821.372 681.925,795.73 701.36,770.981 720.795,747.094 740.23,724.038 759.665,701.785 779.1,680.306 798.536,659.575 817.971,639.566 837.406,620.254 856.841,601.614 876.276,583.623 895.711,566.258 915.146,549.498 934.581,533.321 954.016,517.708 973.451,502.638 992.886,488.092 1012.32,474.053 1031.76,460.503 1051.19,447.425 1070.63,434.802 1090.06,422.618 1109.5,410.859 1128.93,399.508 1148.37,388.554 1167.8,377.98 1187.24,367.775 1206.67,357.924 1226.11,348.417 1245.54,339.241 1264.98,330.384 1284.41,321.836 1303.85,313.585 1323.28,305.621 1342.72,297.935 1362.15,290.516 1381.59,283.356 1401.02,276.445 1420.46,269.774 1439.89,263.336 1459.33,257.122 1478.76,251.124 1498.2,245.335 1517.63,239.747 1537.07,234.354 1556.5,229.149 1575.94,224.125 1595.37,219.276 1614.81,214.596 1634.24,210.078 1653.68,205.718 1673.11,201.51 1692.55,197.448 1711.98,193.528 1731.42,189.744 1750.85,186.092 1770.29,182.567 1789.72,179.165 1809.16,175.881 1828.59,172.711 1848.03,169.652 1867.46,166.7 1886.9,163.85 1906.33,161.099 1925.77,158.444 1945.2,155.882 1964.64,153.408 1984.07,151.021 2003.51,148.717 2022.94,146.493 2042.38,144.347 2061.81,142.275 2081.25,140.276 2100.68,138.346 2120.12,136.483 2139.55,134.685 2158.99,132.95 2178.42,131.275 2197.86,129.659 2217.29,128.098 2236.73,126.592 2256.16,125.139 2275.6,123.736 2295.03,122.382 "/>
<polyline clip-path="url(#clip992)" style="stroke:#e65100; stroke-linecap:round; stroke-linejoin:round; stroke-width:20; stroke-opacity:1; fill:none" points="370.965,1338.06 390.4,1320.36 409.835,1302.91 429.27,1285.7 448.705,1268.74 468.14,1252.02 487.575,1235.53 507.01,1219.28 526.445,1203.25 545.88,1187.46 565.315,1171.88 584.75,1156.53 604.185,1141.39 623.62,1126.47 643.055,1111.75 662.49,1097.25 681.925,1082.95 701.36,1068.85 720.795,1054.95 740.23,1041.25 759.665,1027.74 779.1,1014.42 798.536,1001.29 817.971,988.343 837.406,975.581 856.841,962.999 876.276,950.595 895.711,938.366 915.146,926.31 934.581,914.424 954.016,902.706 973.451,891.154 992.886,879.764 1012.32,868.536 1031.76,857.466 1051.19,846.553 1070.63,835.793 1090.06,825.186 1109.5,814.728 1128.93,804.419 1148.37,794.255 1167.8,784.234 1187.24,774.355 1206.67,764.615 1226.11,755.014 1245.54,745.547 1264.98,736.215 1284.41,727.014 1303.85,717.943 1323.28,709 1342.72,700.184 1362.15,691.492 1381.59,682.923 1401.02,674.475 1420.46,666.147 1439.89,657.935 1459.33,649.84 1478.76,641.86 1498.2,633.992 1517.63,626.235 1537.07,618.588 1556.5,611.048 1575.94,603.616 1595.37,596.288 1614.81,589.064 1634.24,581.941 1653.68,574.92 1673.11,567.997 1692.55,561.173 1711.98,554.444 1731.42,547.811 1750.85,541.272 1770.29,534.824 1789.72,528.468 1809.16,522.202 1828.59,516.024 1848.03,509.934 1867.46,503.929 1886.9,498.01 1906.33,492.173 1925.77,486.42 1945.2,480.747 1964.64,475.155 1984.07,469.642 2003.51,464.207 2022.94,458.848 2042.38,453.565 2061.81,448.357 2081.25,443.222 2100.68,438.16 2120.12,433.169 2139.55,428.249 2158.99,423.398 2178.42,418.616 2197.86,413.902 2217.29,409.253 2236.73,404.671 2256.16,400.153 2275.6,395.7 2295.03,391.309 "/>
<path clip-path="url(#clip990)" d="M1748.21 1331.38 L2284.77 1331.38 L2284.77 748.179 L1748.21 748.179  Z" fill="#ffffff" fill-rule="evenodd" fill-opacity="1"/>
<polyline clip-path="url(#clip990)" style="stroke:#000000; stroke-linecap:round; stroke-linejoin:round; stroke-width:4; stroke-opacity:1; fill:none" points="1748.21,1331.38 2284.77,1331.38 2284.77,748.179 1748.21,748.179 1748.21,1331.38 "/>
<polyline clip-path="url(#clip990)" style="stroke:#030000; stroke-linecap:round; stroke-linejoin:round; stroke-width:37.5; stroke-opacity:1; fill:none" points="1770.87,845.379 1906.84,845.379 "/>
<path clip-path="url(#clip990)" d="M1983.92 825.067 Q1983.92 823.617 1983.52 822.432 Q1983.17 821.202 1982.6 820.367 Q1982.07 819.489 1981.06 818.83 Q1980.05 818.128 1979.22 817.689 Q1978.38 817.249 1976.98 816.986 Q1975.57 816.678 1974.65 816.547 Q1973.73 816.371 1972.15 816.283 Q1970.56 816.195 1969.77 816.195 Q1969.03 816.195 1967.53 816.195 Q1962.84 816.195 1962.04 816.283 Q1960.86 816.459 1960.42 817.161 Q1959.98 817.82 1959.54 819.621 L1953.7 843.073 L1963.76 843.073 Q1969.25 843.073 1973.02 841.535 Q1976.8 839.998 1978.95 837.846 Q1981.32 835.475 1982.6 831.654 Q1983.92 827.833 1983.92 825.067 M1993.71 866.48 Q1993.71 866.963 1993.31 868.061 Q1992.96 869.159 1992.08 870.696 Q1991.21 872.19 1990.02 873.551 Q1988.83 874.912 1986.95 875.835 Q1985.06 876.801 1982.91 876.801 Q1982.38 876.801 1981.85 876.757 Q1981.32 876.757 1980.01 876.537 Q1978.73 876.362 1977.68 876.01 Q1976.63 875.703 1975.31 874.956 Q1973.99 874.254 1973.07 873.288 Q1972.19 872.277 1971.57 870.696 Q1970.96 869.071 1970.96 867.095 Q1970.96 865.339 1972.41 859.454 Q1973.68 854.447 1973.68 853.217 Q1973.68 851.856 1973.24 850.582 Q1972.85 849.309 1971.84 847.991 Q1970.87 846.674 1968.81 845.883 Q1966.74 845.049 1963.85 845.049 L1953.17 845.049 L1947.2 868.896 Q1947.2 868.94 1947.07 869.555 Q1946.94 870.126 1946.94 870.433 Q1946.94 871.004 1947.29 871.355 Q1947.68 871.707 1948.65 871.882 Q1949.62 872.014 1950.36 872.058 Q1951.15 872.058 1952.78 872.058 Q1954.8 872.058 1955.15 872.409 Q1955.33 872.629 1955.33 873.024 Q1955.33 873.639 1955.15 874.078 Q1955.02 874.473 1954.67 874.605 Q1954.36 874.737 1954.14 874.781 Q1953.92 874.825 1953.52 874.825 L1942.11 874.561 L1930.78 874.825 Q1929.5 874.825 1929.5 873.815 Q1929.5 872.936 1929.81 872.585 Q1930.12 872.19 1930.51 872.146 Q1930.91 872.058 1931.92 872.058 Q1934.11 872.058 1935.43 871.926 Q1936.75 871.794 1937.58 871.619 Q1938.46 871.399 1938.9 870.784 Q1939.38 870.169 1939.6 869.642 Q1939.82 869.071 1940.13 867.798 L1952.16 819.489 Q1952.51 818.04 1952.51 817.82 Q1952.51 816.986 1951.99 816.766 Q1951.5 816.503 1950.1 816.371 L1946.67 816.195 Q1945.62 816.195 1945.18 816.151 Q1944.79 816.107 1944.48 815.888 Q1944.17 815.668 1944.17 815.185 Q1944.17 813.956 1944.7 813.692 Q1945.22 813.385 1946.76 813.385 L1972.41 813.385 Q1981.15 813.385 1986.68 817.205 Q1992.26 821.026 1992.26 826.867 Q1992.26 829.502 1991.07 831.962 Q1989.89 834.421 1987.91 836.353 Q1985.98 838.286 1983.39 839.911 Q1980.8 841.492 1978.03 842.589 Q1975.31 843.644 1972.5 844.258 Q1973.73 844.698 1974.87 845.356 Q1976.05 846.015 1977.55 847.245 Q1979.08 848.474 1980.01 850.451 Q1980.93 852.427 1980.93 854.842 Q1980.93 856.555 1980.58 859.102 Q1979.7 866.349 1979.7 869.335 Q1979.7 872.19 1980.45 873.507 Q1981.19 874.825 1983.3 874.825 Q1985.36 874.825 1987.65 872.98 Q1989.98 871.092 1991.47 866.656 Q1991.82 865.382 1992.65 865.382 Q1992.7 865.382 1992.74 865.382 Q1992.83 865.382 1993.01 865.47 Q1993.18 865.514 1993.31 865.646 Q1993.49 865.734 1993.58 865.953 Q1993.71 866.173 1993.71 866.48 Z" fill="#000000" fill-rule="nonzero" fill-opacity="1" /><path clip-path="url(#clip990)" d="M2051.15 825.067 Q2051.15 823.617 2050.75 822.432 Q2050.4 821.202 2049.83 820.367 Q2049.3 819.489 2048.29 818.83 Q2047.28 818.128 2046.45 817.689 Q2045.61 817.249 2044.21 816.986 Q2042.8 816.678 2041.88 816.547 Q2040.96 816.371 2039.38 816.283 Q2037.8 816.195 2037.01 816.195 Q2036.26 816.195 2034.77 816.195 Q2030.07 816.195 2029.28 816.283 Q2028.09 816.459 2027.65 817.161 Q2027.21 817.82 2026.77 819.621 L2020.93 843.073 L2030.99 843.073 Q2036.48 843.073 2040.26 841.535 Q2044.03 839.998 2046.18 837.846 Q2048.56 835.475 2049.83 831.654 Q2051.15 827.833 2051.15 825.067 M2060.94 866.48 Q2060.94 866.963 2060.55 868.061 Q2060.19 869.159 2059.32 870.696 Q2058.44 872.19 2057.25 873.551 Q2056.07 874.912 2054.18 875.835 Q2052.29 876.801 2050.14 876.801 Q2049.61 876.801 2049.08 876.757 Q2048.56 876.757 2047.24 876.537 Q2045.96 876.362 2044.91 876.01 Q2043.86 875.703 2042.54 874.956 Q2041.22 874.254 2040.3 873.288 Q2039.42 872.277 2038.81 870.696 Q2038.19 869.071 2038.19 867.095 Q2038.19 865.339 2039.64 859.454 Q2040.91 854.447 2040.91 853.217 Q2040.91 851.856 2040.47 850.582 Q2040.08 849.309 2039.07 847.991 Q2038.1 846.674 2036.04 845.883 Q2033.98 845.049 2031.08 845.049 L2020.4 845.049 L2014.43 868.896 Q2014.43 868.94 2014.3 869.555 Q2014.17 870.126 2014.17 870.433 Q2014.17 871.004 2014.52 871.355 Q2014.92 871.707 2015.88 871.882 Q2016.85 872.014 2017.59 872.058 Q2018.38 872.058 2020.01 872.058 Q2022.03 872.058 2022.38 872.409 Q2022.56 872.629 2022.56 873.024 Q2022.56 873.639 2022.38 874.078 Q2022.25 874.473 2021.9 874.605 Q2021.59 874.737 2021.37 874.781 Q2021.15 874.825 2020.76 874.825 L2009.34 874.561 L1998.01 874.825 Q1996.73 874.825 1996.73 873.815 Q1996.73 872.936 1997.04 872.585 Q1997.35 872.19 1997.74 872.146 Q1998.14 872.058 1999.15 872.058 Q2001.34 872.058 2002.66 871.926 Q2003.98 871.794 2004.81 871.619 Q2005.69 871.399 2006.13 870.784 Q2006.61 870.169 2006.83 869.642 Q2007.05 869.071 2007.36 867.798 L2019.39 819.489 Q2019.75 818.04 2019.75 817.82 Q2019.75 816.986 2019.22 816.766 Q2018.74 816.503 2017.33 816.371 L2013.91 816.195 Q2012.85 816.195 2012.41 816.151 Q2012.02 816.107 2011.71 815.888 Q2011.4 815.668 2011.4 815.185 Q2011.4 813.956 2011.93 813.692 Q2012.46 813.385 2013.99 813.385 L2039.64 813.385 Q2048.38 813.385 2053.91 817.205 Q2059.49 821.026 2059.49 826.867 Q2059.49 829.502 2058.31 831.962 Q2057.12 834.421 2055.14 836.353 Q2053.21 838.286 2050.62 839.911 Q2048.03 841.492 2045.26 842.589 Q2042.54 843.644 2039.73 844.258 Q2040.96 844.698 2042.1 845.356 Q2043.29 846.015 2044.78 847.245 Q2046.32 848.474 2047.24 850.451 Q2048.16 852.427 2048.16 854.842 Q2048.16 856.555 2047.81 859.102 Q2046.93 866.349 2046.93 869.335 Q2046.93 872.19 2047.68 873.507 Q2048.42 874.825 2050.53 874.825 Q2052.6 874.825 2054.88 872.98 Q2057.21 871.092 2058.7 866.656 Q2059.05 865.382 2059.89 865.382 Q2059.93 865.382 2059.97 865.382 Q2060.06 865.382 2060.24 865.47 Q2060.41 865.514 2060.55 865.646 Q2060.72 865.734 2060.81 865.953 Q2060.94 866.173 2060.94 866.48 Z" fill="#000000" fill-rule="nonzero" fill-opacity="1" /><path clip-path="url(#clip990)" d="M2089.28 861.166 Q2089.37 860.068 2091.08 860.068 L2146.2 860.068 Q2148.79 860.068 2148.83 861.079 Q2148.83 862.177 2146.37 862.133 L2091.7 862.133 Q2089.28 862.177 2089.28 861.166 M2089.28 843.6 Q2089.28 842.502 2091.17 842.546 L2146.11 842.546 Q2148.79 842.546 2148.83 843.6 Q2148.83 844.61 2146.55 844.61 L2091.08 844.61 Q2089.28 844.61 2089.28 843.6 Z" fill="#000000" fill-rule="nonzero" fill-opacity="1" /><path clip-path="url(#clip990)" d="M2183.52 874.825 Q2183.52 873.2 2183.65 872.717 Q2183.83 872.234 2184.53 871.487 L2201.79 852.251 Q2211.23 841.623 2211.23 832.357 Q2211.23 826.34 2208.07 822.036 Q2204.95 817.732 2199.2 817.732 Q2195.25 817.732 2191.91 820.148 Q2188.57 822.563 2187.04 826.867 Q2187.3 826.779 2188.22 826.779 Q2190.46 826.779 2191.69 828.185 Q2192.96 829.59 2192.96 831.478 Q2192.96 833.894 2191.38 835.08 Q2189.85 836.222 2188.31 836.222 Q2187.69 836.222 2186.86 836.09 Q2186.07 835.958 2184.8 834.728 Q2183.52 833.455 2183.52 831.215 Q2183.52 824.935 2188.27 819.928 Q2193.05 814.922 2200.34 814.922 Q2208.6 814.922 2214 819.84 Q2219.45 824.715 2219.45 832.357 Q2219.45 835.036 2218.61 837.495 Q2217.82 839.911 2216.72 841.799 Q2215.67 843.687 2212.77 846.718 Q2209.87 849.748 2207.55 851.9 Q2205.22 854.052 2199.99 858.619 L2190.46 867.886 L2206.67 867.886 Q2214.57 867.886 2215.19 867.183 Q2216.07 865.909 2217.16 859.19 L2219.45 859.19 L2216.9 874.825 L2183.52 874.825 Z" fill="#000000" fill-rule="nonzero" fill-opacity="1" /><polyline clip-path="url(#clip990)" style="stroke:#3c1400; stroke-linecap:round; stroke-linejoin:round; stroke-width:37.5; stroke-opacity:1; fill:none" points="1770.87,942.579 1906.84,942.579 "/>
<path clip-path="url(#clip990)" d="M1983.92 922.267 Q1983.92 920.817 1983.52 919.632 Q1983.17 918.402 1982.6 917.567 Q1982.07 916.689 1981.06 916.03 Q1980.05 915.328 1979.22 914.889 Q1978.38 914.449 1976.98 914.186 Q1975.57 913.878 1974.65 913.747 Q1973.73 913.571 1972.15 913.483 Q1970.56 913.395 1969.77 913.395 Q1969.03 913.395 1967.53 913.395 Q1962.84 913.395 1962.04 913.483 Q1960.86 913.659 1960.42 914.361 Q1959.98 915.02 1959.54 916.821 L1953.7 940.273 L1963.76 940.273 Q1969.25 940.273 1973.02 938.735 Q1976.8 937.198 1978.95 935.046 Q1981.32 932.675 1982.6 928.854 Q1983.92 925.033 1983.92 922.267 M1993.71 963.68 Q1993.71 964.163 1993.31 965.261 Q1992.96 966.359 1992.08 967.896 Q1991.21 969.39 1990.02 970.751 Q1988.83 972.112 1986.95 973.035 Q1985.06 974.001 1982.91 974.001 Q1982.38 974.001 1981.85 973.957 Q1981.32 973.957 1980.01 973.737 Q1978.73 973.562 1977.68 973.21 Q1976.63 972.903 1975.31 972.156 Q1973.99 971.454 1973.07 970.488 Q1972.19 969.477 1971.57 967.896 Q1970.96 966.271 1970.96 964.295 Q1970.96 962.539 1972.41 956.654 Q1973.68 951.647 1973.68 950.417 Q1973.68 949.056 1973.24 947.782 Q1972.85 946.509 1971.84 945.191 Q1970.87 943.874 1968.81 943.083 Q1966.74 942.249 1963.85 942.249 L1953.17 942.249 L1947.2 966.096 Q1947.2 966.14 1947.07 966.755 Q1946.94 967.326 1946.94 967.633 Q1946.94 968.204 1947.29 968.555 Q1947.68 968.907 1948.65 969.082 Q1949.62 969.214 1950.36 969.258 Q1951.15 969.258 1952.78 969.258 Q1954.8 969.258 1955.15 969.609 Q1955.33 969.829 1955.33 970.224 Q1955.33 970.839 1955.15 971.278 Q1955.02 971.673 1954.67 971.805 Q1954.36 971.937 1954.14 971.981 Q1953.92 972.025 1953.52 972.025 L1942.11 971.761 L1930.78 972.025 Q1929.5 972.025 1929.5 971.015 Q1929.5 970.136 1929.81 969.785 Q1930.12 969.39 1930.51 969.346 Q1930.91 969.258 1931.92 969.258 Q1934.11 969.258 1935.43 969.126 Q1936.75 968.994 1937.58 968.819 Q1938.46 968.599 1938.9 967.984 Q1939.38 967.369 1939.6 966.842 Q1939.82 966.271 1940.13 964.998 L1952.16 916.689 Q1952.51 915.24 1952.51 915.02 Q1952.51 914.186 1951.99 913.966 Q1951.5 913.703 1950.1 913.571 L1946.67 913.395 Q1945.62 913.395 1945.18 913.351 Q1944.79 913.307 1944.48 913.088 Q1944.17 912.868 1944.17 912.385 Q1944.17 911.156 1944.7 910.892 Q1945.22 910.585 1946.76 910.585 L1972.41 910.585 Q1981.15 910.585 1986.68 914.405 Q1992.26 918.226 1992.26 924.067 Q1992.26 926.702 1991.07 929.162 Q1989.89 931.621 1987.91 933.553 Q1985.98 935.486 1983.39 937.111 Q1980.8 938.692 1978.03 939.789 Q1975.31 940.844 1972.5 941.458 Q1973.73 941.898 1974.87 942.556 Q1976.05 943.215 1977.55 944.445 Q1979.08 945.674 1980.01 947.651 Q1980.93 949.627 1980.93 952.042 Q1980.93 953.755 1980.58 956.302 Q1979.7 963.549 1979.7 966.535 Q1979.7 969.39 1980.45 970.707 Q1981.19 972.025 1983.3 972.025 Q1985.36 972.025 1987.65 970.18 Q1989.98 968.292 1991.47 963.856 Q1991.82 962.582 1992.65 962.582 Q1992.7 962.582 1992.74 962.582 Q1992.83 962.582 1993.01 962.67 Q1993.18 962.714 1993.31 962.846 Q1993.49 962.934 1993.58 963.153 Q1993.71 963.373 1993.71 963.68 Z" fill="#000000" fill-rule="nonzero" fill-opacity="1" /><path clip-path="url(#clip990)" d="M2051.15 922.267 Q2051.15 920.817 2050.75 919.632 Q2050.4 918.402 2049.83 917.567 Q2049.3 916.689 2048.29 916.03 Q2047.28 915.328 2046.45 914.889 Q2045.61 914.449 2044.21 914.186 Q2042.8 913.878 2041.88 913.747 Q2040.96 913.571 2039.38 913.483 Q2037.8 913.395 2037.01 913.395 Q2036.26 913.395 2034.77 913.395 Q2030.07 913.395 2029.28 913.483 Q2028.09 913.659 2027.65 914.361 Q2027.21 915.02 2026.77 916.821 L2020.93 940.273 L2030.99 940.273 Q2036.48 940.273 2040.26 938.735 Q2044.03 937.198 2046.18 935.046 Q2048.56 932.675 2049.83 928.854 Q2051.15 925.033 2051.15 922.267 M2060.94 963.68 Q2060.94 964.163 2060.55 965.261 Q2060.19 966.359 2059.32 967.896 Q2058.44 969.39 2057.25 970.751 Q2056.07 972.112 2054.18 973.035 Q2052.29 974.001 2050.14 974.001 Q2049.61 974.001 2049.08 973.957 Q2048.56 973.957 2047.24 973.737 Q2045.96 973.562 2044.91 973.21 Q2043.86 972.903 2042.54 972.156 Q2041.22 971.454 2040.3 970.488 Q2039.42 969.477 2038.81 967.896 Q2038.19 966.271 2038.19 964.295 Q2038.19 962.539 2039.64 956.654 Q2040.91 951.647 2040.91 950.417 Q2040.91 949.056 2040.47 947.782 Q2040.08 946.509 2039.07 945.191 Q2038.1 943.874 2036.04 943.083 Q2033.98 942.249 2031.08 942.249 L2020.4 942.249 L2014.43 966.096 Q2014.43 966.14 2014.3 966.755 Q2014.17 967.326 2014.17 967.633 Q2014.17 968.204 2014.52 968.555 Q2014.92 968.907 2015.88 969.082 Q2016.85 969.214 2017.59 969.258 Q2018.38 969.258 2020.01 969.258 Q2022.03 969.258 2022.38 969.609 Q2022.56 969.829 2022.56 970.224 Q2022.56 970.839 2022.38 971.278 Q2022.25 971.673 2021.9 971.805 Q2021.59 971.937 2021.37 971.981 Q2021.15 972.025 2020.76 972.025 L2009.34 971.761 L1998.01 972.025 Q1996.73 972.025 1996.73 971.015 Q1996.73 970.136 1997.04 969.785 Q1997.35 969.39 1997.74 969.346 Q1998.14 969.258 1999.15 969.258 Q2001.34 969.258 2002.66 969.126 Q2003.98 968.994 2004.81 968.819 Q2005.69 968.599 2006.13 967.984 Q2006.61 967.369 2006.83 966.842 Q2007.05 966.271 2007.36 964.998 L2019.39 916.689 Q2019.75 915.24 2019.75 915.02 Q2019.75 914.186 2019.22 913.966 Q2018.74 913.703 2017.33 913.571 L2013.91 913.395 Q2012.85 913.395 2012.41 913.351 Q2012.02 913.307 2011.71 913.088 Q2011.4 912.868 2011.4 912.385 Q2011.4 911.156 2011.93 910.892 Q2012.46 910.585 2013.99 910.585 L2039.64 910.585 Q2048.38 910.585 2053.91 914.405 Q2059.49 918.226 2059.49 924.067 Q2059.49 926.702 2058.31 929.162 Q2057.12 931.621 2055.14 933.553 Q2053.21 935.486 2050.62 937.111 Q2048.03 938.692 2045.26 939.789 Q2042.54 940.844 2039.73 941.458 Q2040.96 941.898 2042.1 942.556 Q2043.29 943.215 2044.78 944.445 Q2046.32 945.674 2047.24 947.651 Q2048.16 949.627 2048.16 952.042 Q2048.16 953.755 2047.81 956.302 Q2046.93 963.549 2046.93 966.535 Q2046.93 969.39 2047.68 970.707 Q2048.42 972.025 2050.53 972.025 Q2052.6 972.025 2054.88 970.18 Q2057.21 968.292 2058.7 963.856 Q2059.05 962.582 2059.89 962.582 Q2059.93 962.582 2059.97 962.582 Q2060.06 962.582 2060.24 962.67 Q2060.41 962.714 2060.55 962.846 Q2060.72 962.934 2060.81 963.153 Q2060.94 963.373 2060.94 963.68 Z" fill="#000000" fill-rule="nonzero" fill-opacity="1" /><path clip-path="url(#clip990)" d="M2089.28 958.366 Q2089.37 957.268 2091.08 957.268 L2146.2 957.268 Q2148.79 957.268 2148.83 958.279 Q2148.83 959.377 2146.37 959.333 L2091.7 959.333 Q2089.28 959.377 2089.28 958.366 M2089.28 940.8 Q2089.28 939.702 2091.17 939.746 L2146.11 939.746 Q2148.79 939.746 2148.83 940.8 Q2148.83 941.81 2146.55 941.81 L2091.08 941.81 Q2089.28 941.81 2089.28 940.8 Z" fill="#000000" fill-rule="nonzero" fill-opacity="1" /><path clip-path="url(#clip990)" d="M2183.52 957.181 L2183.52 954.414 L2211.15 912.21 Q2211.85 911.112 2212.95 911.156 Q2213.96 911.156 2214.18 911.551 Q2214.4 911.946 2214.4 913.483 L2214.4 954.414 L2223.4 954.414 L2223.4 957.181 L2214.4 957.181 L2214.4 964.998 Q2214.4 967.589 2215.45 968.423 Q2216.55 969.258 2221.2 969.258 L2223.09 969.258 L2223.09 972.025 Q2219.4 971.761 2210.88 971.761 Q2202.41 971.761 2198.72 972.025 L2198.72 969.258 L2200.61 969.258 Q2205.26 969.258 2206.36 968.467 Q2207.46 967.633 2207.46 964.998 L2207.46 957.181 L2183.52 957.181 M2186.07 954.414 L2207.98 954.414 L2207.98 920.861 L2186.07 954.414 Z" fill="#000000" fill-rule="nonzero" fill-opacity="1" /><polyline clip-path="url(#clip990)" style="stroke:#742800; stroke-linecap:round; stroke-linejoin:round; stroke-width:37.5; stroke-opacity:1; fill:none" points="1770.87,1039.78 1906.84,1039.78 "/>
<path clip-path="url(#clip990)" d="M1983.92 1019.47 Q1983.92 1018.02 1983.52 1016.83 Q1983.17 1015.6 1982.6 1014.77 Q1982.07 1013.89 1981.06 1013.23 Q1980.05 1012.53 1979.22 1012.09 Q1978.38 1011.65 1976.98 1011.39 Q1975.57 1011.08 1974.65 1010.95 Q1973.73 1010.77 1972.15 1010.68 Q1970.56 1010.6 1969.77 1010.6 Q1969.03 1010.6 1967.53 1010.6 Q1962.84 1010.6 1962.04 1010.68 Q1960.86 1010.86 1960.42 1011.56 Q1959.98 1012.22 1959.54 1014.02 L1953.7 1037.47 L1963.76 1037.47 Q1969.25 1037.47 1973.02 1035.94 Q1976.8 1034.4 1978.95 1032.25 Q1981.32 1029.87 1982.6 1026.05 Q1983.92 1022.23 1983.92 1019.47 M1993.71 1060.88 Q1993.71 1061.36 1993.31 1062.46 Q1992.96 1063.56 1992.08 1065.1 Q1991.21 1066.59 1990.02 1067.95 Q1988.83 1069.31 1986.95 1070.23 Q1985.06 1071.2 1982.91 1071.2 Q1982.38 1071.2 1981.85 1071.16 Q1981.32 1071.16 1980.01 1070.94 Q1978.73 1070.76 1977.68 1070.41 Q1976.63 1070.1 1975.31 1069.36 Q1973.99 1068.65 1973.07 1067.69 Q1972.19 1066.68 1971.57 1065.1 Q1970.96 1063.47 1970.96 1061.5 Q1970.96 1059.74 1972.41 1053.85 Q1973.68 1048.85 1973.68 1047.62 Q1973.68 1046.26 1973.24 1044.98 Q1972.85 1043.71 1971.84 1042.39 Q1970.87 1041.07 1968.81 1040.28 Q1966.74 1039.45 1963.85 1039.45 L1953.17 1039.45 L1947.2 1063.3 Q1947.2 1063.34 1947.07 1063.95 Q1946.94 1064.53 1946.94 1064.83 Q1946.94 1065.4 1947.29 1065.76 Q1947.68 1066.11 1948.65 1066.28 Q1949.62 1066.41 1950.36 1066.46 Q1951.15 1066.46 1952.78 1066.46 Q1954.8 1066.46 1955.15 1066.81 Q1955.33 1067.03 1955.33 1067.42 Q1955.33 1068.04 1955.15 1068.48 Q1955.02 1068.87 1954.67 1069.01 Q1954.36 1069.14 1954.14 1069.18 Q1953.92 1069.22 1953.52 1069.22 L1942.11 1068.96 L1930.78 1069.22 Q1929.5 1069.22 1929.5 1068.21 Q1929.5 1067.34 1929.81 1066.98 Q1930.12 1066.59 1930.51 1066.55 Q1930.91 1066.46 1931.92 1066.46 Q1934.11 1066.46 1935.43 1066.33 Q1936.75 1066.19 1937.58 1066.02 Q1938.46 1065.8 1938.9 1065.18 Q1939.38 1064.57 1939.6 1064.04 Q1939.82 1063.47 1940.13 1062.2 L1952.16 1013.89 Q1952.51 1012.44 1952.51 1012.22 Q1952.51 1011.39 1951.99 1011.17 Q1951.5 1010.9 1950.1 1010.77 L1946.67 1010.6 Q1945.62 1010.6 1945.18 1010.55 Q1944.79 1010.51 1944.48 1010.29 Q1944.17 1010.07 1944.17 1009.59 Q1944.17 1008.36 1944.7 1008.09 Q1945.22 1007.78 1946.76 1007.78 L1972.41 1007.78 Q1981.15 1007.78 1986.68 1011.61 Q1992.26 1015.43 1992.26 1021.27 Q1992.26 1023.9 1991.07 1026.36 Q1989.89 1028.82 1987.91 1030.75 Q1985.98 1032.69 1983.39 1034.31 Q1980.8 1035.89 1978.03 1036.99 Q1975.31 1038.04 1972.5 1038.66 Q1973.73 1039.1 1974.87 1039.76 Q1976.05 1040.42 1977.55 1041.64 Q1979.08 1042.87 1980.01 1044.85 Q1980.93 1046.83 1980.93 1049.24 Q1980.93 1050.96 1980.58 1053.5 Q1979.7 1060.75 1979.7 1063.73 Q1979.7 1066.59 1980.45 1067.91 Q1981.19 1069.22 1983.3 1069.22 Q1985.36 1069.22 1987.65 1067.38 Q1989.98 1065.49 1991.47 1061.06 Q1991.82 1059.78 1992.65 1059.78 Q1992.7 1059.78 1992.74 1059.78 Q1992.83 1059.78 1993.01 1059.87 Q1993.18 1059.91 1993.31 1060.05 Q1993.49 1060.13 1993.58 1060.35 Q1993.71 1060.57 1993.71 1060.88 Z" fill="#000000" fill-rule="nonzero" fill-opacity="1" /><path clip-path="url(#clip990)" d="M2051.15 1019.47 Q2051.15 1018.02 2050.75 1016.83 Q2050.4 1015.6 2049.83 1014.77 Q2049.3 1013.89 2048.29 1013.23 Q2047.28 1012.53 2046.45 1012.09 Q2045.61 1011.65 2044.21 1011.39 Q2042.8 1011.08 2041.88 1010.95 Q2040.96 1010.77 2039.38 1010.68 Q2037.8 1010.6 2037.01 1010.6 Q2036.26 1010.6 2034.77 1010.6 Q2030.07 1010.6 2029.28 1010.68 Q2028.09 1010.86 2027.65 1011.56 Q2027.21 1012.22 2026.77 1014.02 L2020.93 1037.47 L2030.99 1037.47 Q2036.48 1037.47 2040.26 1035.94 Q2044.03 1034.4 2046.18 1032.25 Q2048.56 1029.87 2049.83 1026.05 Q2051.15 1022.23 2051.15 1019.47 M2060.94 1060.88 Q2060.94 1061.36 2060.55 1062.46 Q2060.19 1063.56 2059.32 1065.1 Q2058.44 1066.59 2057.25 1067.95 Q2056.07 1069.31 2054.18 1070.23 Q2052.29 1071.2 2050.14 1071.2 Q2049.61 1071.2 2049.08 1071.16 Q2048.56 1071.16 2047.24 1070.94 Q2045.96 1070.76 2044.91 1070.41 Q2043.86 1070.1 2042.54 1069.36 Q2041.22 1068.65 2040.3 1067.69 Q2039.42 1066.68 2038.81 1065.1 Q2038.19 1063.47 2038.19 1061.5 Q2038.19 1059.74 2039.64 1053.85 Q2040.91 1048.85 2040.91 1047.62 Q2040.91 1046.26 2040.47 1044.98 Q2040.08 1043.71 2039.07 1042.39 Q2038.1 1041.07 2036.04 1040.28 Q2033.98 1039.45 2031.08 1039.45 L2020.4 1039.45 L2014.43 1063.3 Q2014.43 1063.34 2014.3 1063.95 Q2014.17 1064.53 2014.17 1064.83 Q2014.17 1065.4 2014.52 1065.76 Q2014.92 1066.11 2015.88 1066.28 Q2016.85 1066.41 2017.59 1066.46 Q2018.38 1066.46 2020.01 1066.46 Q2022.03 1066.46 2022.38 1066.81 Q2022.56 1067.03 2022.56 1067.42 Q2022.56 1068.04 2022.38 1068.48 Q2022.25 1068.87 2021.9 1069.01 Q2021.59 1069.14 2021.37 1069.18 Q2021.15 1069.22 2020.76 1069.22 L2009.34 1068.96 L1998.01 1069.22 Q1996.73 1069.22 1996.73 1068.21 Q1996.73 1067.34 1997.04 1066.98 Q1997.35 1066.59 1997.74 1066.55 Q1998.14 1066.46 1999.15 1066.46 Q2001.34 1066.46 2002.66 1066.33 Q2003.98 1066.19 2004.81 1066.02 Q2005.69 1065.8 2006.13 1065.18 Q2006.61 1064.57 2006.83 1064.04 Q2007.05 1063.47 2007.36 1062.2 L2019.39 1013.89 Q2019.75 1012.44 2019.75 1012.22 Q2019.75 1011.39 2019.22 1011.17 Q2018.74 1010.9 2017.33 1010.77 L2013.91 1010.6 Q2012.85 1010.6 2012.41 1010.55 Q2012.02 1010.51 2011.71 1010.29 Q2011.4 1010.07 2011.4 1009.59 Q2011.4 1008.36 2011.93 1008.09 Q2012.46 1007.78 2013.99 1007.78 L2039.64 1007.78 Q2048.38 1007.78 2053.91 1011.61 Q2059.49 1015.43 2059.49 1021.27 Q2059.49 1023.9 2058.31 1026.36 Q2057.12 1028.82 2055.14 1030.75 Q2053.21 1032.69 2050.62 1034.31 Q2048.03 1035.89 2045.26 1036.99 Q2042.54 1038.04 2039.73 1038.66 Q2040.96 1039.1 2042.1 1039.76 Q2043.29 1040.42 2044.78 1041.64 Q2046.32 1042.87 2047.24 1044.85 Q2048.16 1046.83 2048.16 1049.24 Q2048.16 1050.96 2047.81 1053.5 Q2046.93 1060.75 2046.93 1063.73 Q2046.93 1066.59 2047.68 1067.91 Q2048.42 1069.22 2050.53 1069.22 Q2052.6 1069.22 2054.88 1067.38 Q2057.21 1065.49 2058.7 1061.06 Q2059.05 1059.78 2059.89 1059.78 Q2059.93 1059.78 2059.97 1059.78 Q2060.06 1059.78 2060.24 1059.87 Q2060.41 1059.91 2060.55 1060.05 Q2060.72 1060.13 2060.81 1060.35 Q2060.94 1060.57 2060.94 1060.88 Z" fill="#000000" fill-rule="nonzero" fill-opacity="1" /><path clip-path="url(#clip990)" d="M2089.28 1055.57 Q2089.37 1054.47 2091.08 1054.47 L2146.2 1054.47 Q2148.79 1054.47 2148.83 1055.48 Q2148.83 1056.58 2146.37 1056.53 L2091.7 1056.53 Q2089.28 1056.58 2089.28 1055.57 M2089.28 1038 Q2089.28 1036.9 2091.17 1036.95 L2146.11 1036.95 Q2148.79 1036.95 2148.83 1038 Q2148.83 1039.01 2146.55 1039.01 L2091.08 1039.01 Q2089.28 1039.01 2089.28 1038 Z" fill="#000000" fill-rule="nonzero" fill-opacity="1" /><path clip-path="url(#clip990)" d="M2183.52 1040.81 Q2183.52 1026.67 2190.73 1018.02 Q2197.93 1009.32 2207.19 1009.32 Q2212.6 1009.32 2215.58 1012.09 Q2218.61 1014.81 2218.61 1019.03 Q2218.61 1021.36 2217.25 1022.37 Q2215.89 1023.38 2214.48 1023.38 Q2212.86 1023.38 2211.59 1022.28 Q2210.31 1021.18 2210.31 1019.2 Q2210.31 1015.16 2215.27 1015.16 Q2212.95 1011.56 2207.37 1011.56 Q2205.66 1011.56 2203.9 1012.09 Q2202.14 1012.57 2199.86 1014.24 Q2197.58 1015.91 2195.82 1018.54 Q2194.06 1021.18 2192.83 1026.14 Q2191.6 1031.1 2191.6 1037.56 L2191.6 1039.71 Q2195.29 1030.8 2202.85 1030.84 Q2210.4 1030.84 2215.63 1036.59 Q2220.85 1042.35 2220.85 1050.87 Q2220.85 1059.61 2215.41 1065.4 Q2209.96 1071.2 2202.32 1071.2 Q2198.89 1071.2 2195.78 1069.75 Q2192.7 1068.35 2189.8 1065.1 Q2186.95 1061.85 2185.24 1055.61 Q2183.52 1049.37 2183.52 1040.81 M2191.78 1048.89 Q2191.78 1057.72 2193.4 1061.93 Q2193.67 1062.64 2194.24 1063.6 Q2194.85 1064.57 2195.86 1065.84 Q2196.92 1067.07 2198.63 1067.91 Q2200.34 1068.7 2202.32 1068.7 Q2208.34 1068.7 2211.23 1062.86 Q2212.77 1059.61 2212.77 1050.78 Q2212.77 1041.78 2211.15 1038.48 Q2208.38 1032.91 2202.76 1032.91 Q2198.98 1032.91 2196.35 1035.5 Q2193.76 1038.09 2192.75 1041.56 Q2191.78 1045.03 2191.78 1048.89 Z" fill="#000000" fill-rule="nonzero" fill-opacity="1" /><polyline clip-path="url(#clip990)" style="stroke:#ad3d00; stroke-linecap:round; stroke-linejoin:round; stroke-width:37.5; stroke-opacity:1; fill:none" points="1770.87,1136.98 1906.84,1136.98 "/>
<path clip-path="url(#clip990)" d="M1983.92 1116.67 Q1983.92 1115.22 1983.52 1114.03 Q1983.17 1112.8 1982.6 1111.97 Q1982.07 1111.09 1981.06 1110.43 Q1980.05 1109.73 1979.22 1109.29 Q1978.38 1108.85 1976.98 1108.59 Q1975.57 1108.28 1974.65 1108.15 Q1973.73 1107.97 1972.15 1107.88 Q1970.56 1107.8 1969.77 1107.8 Q1969.03 1107.8 1967.53 1107.8 Q1962.84 1107.8 1962.04 1107.88 Q1960.86 1108.06 1960.42 1108.76 Q1959.98 1109.42 1959.54 1111.22 L1953.7 1134.67 L1963.76 1134.67 Q1969.25 1134.67 1973.02 1133.14 Q1976.8 1131.6 1978.95 1129.45 Q1981.32 1127.07 1982.6 1123.25 Q1983.92 1119.43 1983.92 1116.67 M1993.71 1158.08 Q1993.71 1158.56 1993.31 1159.66 Q1992.96 1160.76 1992.08 1162.3 Q1991.21 1163.79 1990.02 1165.15 Q1988.83 1166.51 1986.95 1167.43 Q1985.06 1168.4 1982.91 1168.4 Q1982.38 1168.4 1981.85 1168.36 Q1981.32 1168.36 1980.01 1168.14 Q1978.73 1167.96 1977.68 1167.61 Q1976.63 1167.3 1975.31 1166.56 Q1973.99 1165.85 1973.07 1164.89 Q1972.19 1163.88 1971.57 1162.3 Q1970.96 1160.67 1970.96 1158.7 Q1970.96 1156.94 1972.41 1151.05 Q1973.68 1146.05 1973.68 1144.82 Q1973.68 1143.46 1973.24 1142.18 Q1972.85 1140.91 1971.84 1139.59 Q1970.87 1138.27 1968.81 1137.48 Q1966.74 1136.65 1963.85 1136.65 L1953.17 1136.65 L1947.2 1160.5 Q1947.2 1160.54 1947.07 1161.15 Q1946.94 1161.73 1946.94 1162.03 Q1946.94 1162.6 1947.29 1162.96 Q1947.68 1163.31 1948.65 1163.48 Q1949.62 1163.61 1950.36 1163.66 Q1951.15 1163.66 1952.78 1163.66 Q1954.8 1163.66 1955.15 1164.01 Q1955.33 1164.23 1955.33 1164.62 Q1955.33 1165.24 1955.15 1165.68 Q1955.02 1166.07 1954.67 1166.21 Q1954.36 1166.34 1954.14 1166.38 Q1953.92 1166.42 1953.52 1166.42 L1942.11 1166.16 L1930.78 1166.42 Q1929.5 1166.42 1929.5 1165.41 Q1929.5 1164.54 1929.81 1164.18 Q1930.12 1163.79 1930.51 1163.75 Q1930.91 1163.66 1931.92 1163.66 Q1934.11 1163.66 1935.43 1163.53 Q1936.75 1163.39 1937.58 1163.22 Q1938.46 1163 1938.9 1162.38 Q1939.38 1161.77 1939.6 1161.24 Q1939.82 1160.67 1940.13 1159.4 L1952.16 1111.09 Q1952.51 1109.64 1952.51 1109.42 Q1952.51 1108.59 1951.99 1108.37 Q1951.5 1108.1 1950.1 1107.97 L1946.67 1107.8 Q1945.62 1107.8 1945.18 1107.75 Q1944.79 1107.71 1944.48 1107.49 Q1944.17 1107.27 1944.17 1106.79 Q1944.17 1105.56 1944.7 1105.29 Q1945.22 1104.98 1946.76 1104.98 L1972.41 1104.98 Q1981.15 1104.98 1986.68 1108.81 Q1992.26 1112.63 1992.26 1118.47 Q1992.26 1121.1 1991.07 1123.56 Q1989.89 1126.02 1987.91 1127.95 Q1985.98 1129.89 1983.39 1131.51 Q1980.8 1133.09 1978.03 1134.19 Q1975.31 1135.24 1972.5 1135.86 Q1973.73 1136.3 1974.87 1136.96 Q1976.05 1137.62 1977.55 1138.84 Q1979.08 1140.07 1980.01 1142.05 Q1980.93 1144.03 1980.93 1146.44 Q1980.93 1148.16 1980.58 1150.7 Q1979.7 1157.95 1979.7 1160.93 Q1979.7 1163.79 1980.45 1165.11 Q1981.19 1166.42 1983.3 1166.42 Q1985.36 1166.42 1987.65 1164.58 Q1989.98 1162.69 1991.47 1158.26 Q1991.82 1156.98 1992.65 1156.98 Q1992.7 1156.98 1992.74 1156.98 Q1992.83 1156.98 1993.01 1157.07 Q1993.18 1157.11 1993.31 1157.25 Q1993.49 1157.33 1993.58 1157.55 Q1993.71 1157.77 1993.71 1158.08 Z" fill="#000000" fill-rule="nonzero" fill-opacity="1" /><path clip-path="url(#clip990)" d="M2051.15 1116.67 Q2051.15 1115.22 2050.75 1114.03 Q2050.4 1112.8 2049.83 1111.97 Q2049.3 1111.09 2048.29 1110.43 Q2047.28 1109.73 2046.45 1109.29 Q2045.61 1108.85 2044.21 1108.59 Q2042.8 1108.28 2041.88 1108.15 Q2040.96 1107.97 2039.38 1107.88 Q2037.8 1107.8 2037.01 1107.8 Q2036.26 1107.8 2034.77 1107.8 Q2030.07 1107.8 2029.28 1107.88 Q2028.09 1108.06 2027.65 1108.76 Q2027.21 1109.42 2026.77 1111.22 L2020.93 1134.67 L2030.99 1134.67 Q2036.48 1134.67 2040.26 1133.14 Q2044.03 1131.6 2046.18 1129.45 Q2048.56 1127.07 2049.83 1123.25 Q2051.15 1119.43 2051.15 1116.67 M2060.94 1158.08 Q2060.94 1158.56 2060.55 1159.66 Q2060.19 1160.76 2059.32 1162.3 Q2058.44 1163.79 2057.25 1165.15 Q2056.07 1166.51 2054.18 1167.43 Q2052.29 1168.4 2050.14 1168.4 Q2049.61 1168.4 2049.08 1168.36 Q2048.56 1168.36 2047.24 1168.14 Q2045.96 1167.96 2044.91 1167.61 Q2043.86 1167.3 2042.54 1166.56 Q2041.22 1165.85 2040.3 1164.89 Q2039.42 1163.88 2038.81 1162.3 Q2038.19 1160.67 2038.19 1158.7 Q2038.19 1156.94 2039.64 1151.05 Q2040.91 1146.05 2040.91 1144.82 Q2040.91 1143.46 2040.47 1142.18 Q2040.08 1140.91 2039.07 1139.59 Q2038.1 1138.27 2036.04 1137.48 Q2033.98 1136.65 2031.08 1136.65 L2020.4 1136.65 L2014.43 1160.5 Q2014.43 1160.54 2014.3 1161.15 Q2014.17 1161.73 2014.17 1162.03 Q2014.17 1162.6 2014.52 1162.96 Q2014.92 1163.31 2015.88 1163.48 Q2016.85 1163.61 2017.59 1163.66 Q2018.38 1163.66 2020.01 1163.66 Q2022.03 1163.66 2022.38 1164.01 Q2022.56 1164.23 2022.56 1164.62 Q2022.56 1165.24 2022.38 1165.68 Q2022.25 1166.07 2021.9 1166.21 Q2021.59 1166.34 2021.37 1166.38 Q2021.15 1166.42 2020.76 1166.42 L2009.34 1166.16 L1998.01 1166.42 Q1996.73 1166.42 1996.73 1165.41 Q1996.73 1164.54 1997.04 1164.18 Q1997.35 1163.79 1997.74 1163.75 Q1998.14 1163.66 1999.15 1163.66 Q2001.34 1163.66 2002.66 1163.53 Q2003.98 1163.39 2004.81 1163.22 Q2005.69 1163 2006.13 1162.38 Q2006.61 1161.77 2006.83 1161.24 Q2007.05 1160.67 2007.36 1159.4 L2019.39 1111.09 Q2019.75 1109.64 2019.75 1109.42 Q2019.75 1108.59 2019.22 1108.37 Q2018.74 1108.1 2017.33 1107.97 L2013.91 1107.8 Q2012.85 1107.8 2012.41 1107.75 Q2012.02 1107.71 2011.71 1107.49 Q2011.4 1107.27 2011.4 1106.79 Q2011.4 1105.56 2011.93 1105.29 Q2012.46 1104.98 2013.99 1104.98 L2039.64 1104.98 Q2048.38 1104.98 2053.91 1108.81 Q2059.49 1112.63 2059.49 1118.47 Q2059.49 1121.1 2058.31 1123.56 Q2057.12 1126.02 2055.14 1127.95 Q2053.21 1129.89 2050.62 1131.51 Q2048.03 1133.09 2045.26 1134.19 Q2042.54 1135.24 2039.73 1135.86 Q2040.96 1136.3 2042.1 1136.96 Q2043.29 1137.62 2044.78 1138.84 Q2046.32 1140.07 2047.24 1142.05 Q2048.16 1144.03 2048.16 1146.44 Q2048.16 1148.16 2047.81 1150.7 Q2046.93 1157.95 2046.93 1160.93 Q2046.93 1163.79 2047.68 1165.11 Q2048.42 1166.42 2050.53 1166.42 Q2052.6 1166.42 2054.88 1164.58 Q2057.21 1162.69 2058.7 1158.26 Q2059.05 1156.98 2059.89 1156.98 Q2059.93 1156.98 2059.97 1156.98 Q2060.06 1156.98 2060.24 1157.07 Q2060.41 1157.11 2060.55 1157.25 Q2060.72 1157.33 2060.81 1157.55 Q2060.94 1157.77 2060.94 1158.08 Z" fill="#000000" fill-rule="nonzero" fill-opacity="1" /><path clip-path="url(#clip990)" d="M2089.28 1152.77 Q2089.37 1151.67 2091.08 1151.67 L2146.2 1151.67 Q2148.79 1151.67 2148.83 1152.68 Q2148.83 1153.78 2146.37 1153.73 L2091.7 1153.73 Q2089.28 1153.78 2089.28 1152.77 M2089.28 1135.2 Q2089.28 1134.1 2091.17 1134.15 L2146.11 1134.15 Q2148.79 1134.15 2148.83 1135.2 Q2148.83 1136.21 2146.55 1136.21 L2091.08 1136.21 Q2089.28 1136.21 2089.28 1135.2 Z" fill="#000000" fill-rule="nonzero" fill-opacity="1" /><path clip-path="url(#clip990)" d="M2183.52 1152.85 Q2183.52 1142.8 2196.48 1136.3 Q2190.9 1132.52 2189.89 1131.42 Q2185.94 1127.03 2185.94 1121.54 Q2185.94 1115.26 2190.68 1110.91 Q2195.47 1106.52 2202.23 1106.52 Q2208.69 1106.52 2213.56 1110.25 Q2218.44 1113.99 2218.44 1119.92 Q2218.44 1128.26 2207.55 1133.88 Q2214.75 1138.36 2216.46 1140.25 Q2220.85 1145.12 2220.85 1151.32 Q2220.85 1158.52 2215.32 1163.48 Q2209.79 1168.4 2202.14 1168.4 Q2194.68 1168.4 2189.1 1164.05 Q2183.52 1159.71 2183.52 1152.85 M2188 1152.85 Q2188 1158.43 2192.17 1162.16 Q2196.39 1165.9 2202.23 1165.9 Q2207.9 1165.9 2212.11 1162.65 Q2216.37 1159.4 2216.37 1154.57 Q2216.37 1152.68 2215.71 1151.05 Q2215.1 1149.43 2213.83 1148.16 Q2212.6 1146.84 2211.81 1146.27 Q2211.06 1145.65 2209.61 1144.64 L2198.54 1137.66 Q2188 1143.5 2188 1152.85 M2189.89 1118.03 Q2189.89 1122.33 2194.41 1125.32 L2205.57 1132.52 Q2214.48 1127.29 2214.48 1119.92 Q2214.48 1115.13 2210.84 1111.97 Q2207.19 1108.76 2202.14 1108.76 Q2197.18 1108.76 2193.54 1111.4 Q2189.89 1113.99 2189.89 1118.03 Z" fill="#000000" fill-rule="nonzero" fill-opacity="1" /><polyline clip-path="url(#clip990)" style="stroke:#e65100; stroke-linecap:round; stroke-linejoin:round; stroke-width:37.5; stroke-opacity:1; fill:none" points="1770.87,1234.18 1906.84,1234.18 "/>
<path clip-path="url(#clip990)" d="M1983.92 1213.87 Q1983.92 1212.42 1983.52 1211.23 Q1983.17 1210 1982.6 1209.17 Q1982.07 1208.29 1981.06 1207.63 Q1980.05 1206.93 1979.22 1206.49 Q1978.38 1206.05 1976.98 1205.79 Q1975.57 1205.48 1974.65 1205.35 Q1973.73 1205.17 1972.15 1205.08 Q1970.56 1205 1969.77 1205 Q1969.03 1205 1967.53 1205 Q1962.84 1205 1962.04 1205.08 Q1960.86 1205.26 1960.42 1205.96 Q1959.98 1206.62 1959.54 1208.42 L1953.7 1231.87 L1963.76 1231.87 Q1969.25 1231.87 1973.02 1230.34 Q1976.8 1228.8 1978.95 1226.65 Q1981.32 1224.27 1982.6 1220.45 Q1983.92 1216.63 1983.92 1213.87 M1993.71 1255.28 Q1993.71 1255.76 1993.31 1256.86 Q1992.96 1257.96 1992.08 1259.5 Q1991.21 1260.99 1990.02 1262.35 Q1988.83 1263.71 1986.95 1264.63 Q1985.06 1265.6 1982.91 1265.6 Q1982.38 1265.6 1981.85 1265.56 Q1981.32 1265.56 1980.01 1265.34 Q1978.73 1265.16 1977.68 1264.81 Q1976.63 1264.5 1975.31 1263.76 Q1973.99 1263.05 1973.07 1262.09 Q1972.19 1261.08 1971.57 1259.5 Q1970.96 1257.87 1970.96 1255.9 Q1970.96 1254.14 1972.41 1248.25 Q1973.68 1243.25 1973.68 1242.02 Q1973.68 1240.66 1973.24 1239.38 Q1972.85 1238.11 1971.84 1236.79 Q1970.87 1235.47 1968.81 1234.68 Q1966.74 1233.85 1963.85 1233.85 L1953.17 1233.85 L1947.2 1257.7 Q1947.2 1257.74 1947.07 1258.35 Q1946.94 1258.93 1946.94 1259.23 Q1946.94 1259.8 1947.29 1260.16 Q1947.68 1260.51 1948.65 1260.68 Q1949.62 1260.81 1950.36 1260.86 Q1951.15 1260.86 1952.78 1260.86 Q1954.8 1260.86 1955.15 1261.21 Q1955.33 1261.43 1955.33 1261.82 Q1955.33 1262.44 1955.15 1262.88 Q1955.02 1263.27 1954.67 1263.41 Q1954.36 1263.54 1954.14 1263.58 Q1953.92 1263.62 1953.52 1263.62 L1942.11 1263.36 L1930.78 1263.62 Q1929.5 1263.62 1929.5 1262.61 Q1929.5 1261.74 1929.81 1261.38 Q1930.12 1260.99 1930.51 1260.95 Q1930.91 1260.86 1931.92 1260.86 Q1934.11 1260.86 1935.43 1260.73 Q1936.75 1260.59 1937.58 1260.42 Q1938.46 1260.2 1938.9 1259.58 Q1939.38 1258.97 1939.6 1258.44 Q1939.82 1257.87 1940.13 1256.6 L1952.16 1208.29 Q1952.51 1206.84 1952.51 1206.62 Q1952.51 1205.79 1951.99 1205.57 Q1951.5 1205.3 1950.1 1205.17 L1946.67 1205 Q1945.62 1205 1945.18 1204.95 Q1944.79 1204.91 1944.48 1204.69 Q1944.17 1204.47 1944.17 1203.99 Q1944.17 1202.76 1944.7 1202.49 Q1945.22 1202.18 1946.76 1202.18 L1972.41 1202.18 Q1981.15 1202.18 1986.68 1206.01 Q1992.26 1209.83 1992.26 1215.67 Q1992.26 1218.3 1991.07 1220.76 Q1989.89 1223.22 1987.91 1225.15 Q1985.98 1227.09 1983.39 1228.71 Q1980.8 1230.29 1978.03 1231.39 Q1975.31 1232.44 1972.5 1233.06 Q1973.73 1233.5 1974.87 1234.16 Q1976.05 1234.82 1977.55 1236.04 Q1979.08 1237.27 1980.01 1239.25 Q1980.93 1241.23 1980.93 1243.64 Q1980.93 1245.36 1980.58 1247.9 Q1979.7 1255.15 1979.7 1258.13 Q1979.7 1260.99 1980.45 1262.31 Q1981.19 1263.62 1983.3 1263.62 Q1985.36 1263.62 1987.65 1261.78 Q1989.98 1259.89 1991.47 1255.46 Q1991.82 1254.18 1992.65 1254.18 Q1992.7 1254.18 1992.74 1254.18 Q1992.83 1254.18 1993.01 1254.27 Q1993.18 1254.31 1993.31 1254.45 Q1993.49 1254.53 1993.58 1254.75 Q1993.71 1254.97 1993.71 1255.28 Z" fill="#000000" fill-rule="nonzero" fill-opacity="1" /><path clip-path="url(#clip990)" d="M2051.15 1213.87 Q2051.15 1212.42 2050.75 1211.23 Q2050.4 1210 2049.83 1209.17 Q2049.3 1208.29 2048.29 1207.63 Q2047.28 1206.93 2046.45 1206.49 Q2045.61 1206.05 2044.21 1205.79 Q2042.8 1205.48 2041.88 1205.35 Q2040.96 1205.17 2039.38 1205.08 Q2037.8 1205 2037.01 1205 Q2036.26 1205 2034.77 1205 Q2030.07 1205 2029.28 1205.08 Q2028.09 1205.26 2027.65 1205.96 Q2027.21 1206.62 2026.77 1208.42 L2020.93 1231.87 L2030.99 1231.87 Q2036.48 1231.87 2040.26 1230.34 Q2044.03 1228.8 2046.18 1226.65 Q2048.56 1224.27 2049.83 1220.45 Q2051.15 1216.63 2051.15 1213.87 M2060.94 1255.28 Q2060.94 1255.76 2060.55 1256.86 Q2060.19 1257.96 2059.32 1259.5 Q2058.44 1260.99 2057.25 1262.35 Q2056.07 1263.71 2054.18 1264.63 Q2052.29 1265.6 2050.14 1265.6 Q2049.61 1265.6 2049.08 1265.56 Q2048.56 1265.56 2047.24 1265.34 Q2045.96 1265.16 2044.91 1264.81 Q2043.86 1264.5 2042.54 1263.76 Q2041.22 1263.05 2040.3 1262.09 Q2039.42 1261.08 2038.81 1259.5 Q2038.19 1257.87 2038.19 1255.9 Q2038.19 1254.14 2039.64 1248.25 Q2040.91 1243.25 2040.91 1242.02 Q2040.91 1240.66 2040.47 1239.38 Q2040.08 1238.11 2039.07 1236.79 Q2038.1 1235.47 2036.04 1234.68 Q2033.98 1233.85 2031.08 1233.85 L2020.4 1233.85 L2014.43 1257.7 Q2014.43 1257.74 2014.3 1258.35 Q2014.17 1258.93 2014.17 1259.23 Q2014.17 1259.8 2014.52 1260.16 Q2014.92 1260.51 2015.88 1260.68 Q2016.85 1260.81 2017.59 1260.86 Q2018.38 1260.86 2020.01 1260.86 Q2022.03 1260.86 2022.38 1261.21 Q2022.56 1261.43 2022.56 1261.82 Q2022.56 1262.44 2022.38 1262.88 Q2022.25 1263.27 2021.9 1263.41 Q2021.59 1263.54 2021.37 1263.58 Q2021.15 1263.62 2020.76 1263.62 L2009.34 1263.36 L1998.01 1263.62 Q1996.73 1263.62 1996.73 1262.61 Q1996.73 1261.74 1997.04 1261.38 Q1997.35 1260.99 1997.74 1260.95 Q1998.14 1260.86 1999.15 1260.86 Q2001.34 1260.86 2002.66 1260.73 Q2003.98 1260.59 2004.81 1260.42 Q2005.69 1260.2 2006.13 1259.58 Q2006.61 1258.97 2006.83 1258.44 Q2007.05 1257.87 2007.36 1256.6 L2019.39 1208.29 Q2019.75 1206.84 2019.75 1206.62 Q2019.75 1205.79 2019.22 1205.57 Q2018.74 1205.3 2017.33 1205.17 L2013.91 1205 Q2012.85 1205 2012.41 1204.95 Q2012.02 1204.91 2011.71 1204.69 Q2011.4 1204.47 2011.4 1203.99 Q2011.4 1202.76 2011.93 1202.49 Q2012.46 1202.18 2013.99 1202.18 L2039.64 1202.18 Q2048.38 1202.18 2053.91 1206.01 Q2059.49 1209.83 2059.49 1215.67 Q2059.49 1218.3 2058.31 1220.76 Q2057.12 1223.22 2055.14 1225.15 Q2053.21 1227.09 2050.62 1228.71 Q2048.03 1230.29 2045.26 1231.39 Q2042.54 1232.44 2039.73 1233.06 Q2040.96 1233.5 2042.1 1234.16 Q2043.29 1234.82 2044.78 1236.04 Q2046.32 1237.27 2047.24 1239.25 Q2048.16 1241.23 2048.16 1243.64 Q2048.16 1245.36 2047.81 1247.9 Q2046.93 1255.15 2046.93 1258.13 Q2046.93 1260.99 2047.68 1262.31 Q2048.42 1263.62 2050.53 1263.62 Q2052.6 1263.62 2054.88 1261.78 Q2057.21 1259.89 2058.7 1255.46 Q2059.05 1254.18 2059.89 1254.18 Q2059.93 1254.18 2059.97 1254.18 Q2060.06 1254.18 2060.24 1254.27 Q2060.41 1254.31 2060.55 1254.45 Q2060.72 1254.53 2060.81 1254.75 Q2060.94 1254.97 2060.94 1255.28 Z" fill="#000000" fill-rule="nonzero" fill-opacity="1" /><path clip-path="url(#clip990)" d="M2089.28 1249.97 Q2089.37 1248.87 2091.08 1248.87 L2146.2 1248.87 Q2148.79 1248.87 2148.83 1249.88 Q2148.83 1250.98 2146.37 1250.93 L2091.7 1250.93 Q2089.28 1250.98 2089.28 1249.97 M2089.28 1232.4 Q2089.28 1231.3 2091.17 1231.35 L2146.11 1231.35 Q2148.79 1231.35 2148.83 1232.4 Q2148.83 1233.41 2146.55 1233.41 L2091.08 1233.41 Q2089.28 1233.41 2089.28 1232.4 Z" fill="#000000" fill-rule="nonzero" fill-opacity="1" /><path clip-path="url(#clip990)" d="M2183.52 1212.29 L2183.52 1209.47 Q2194.33 1209.47 2199.9 1203.72 Q2201.44 1203.72 2201.7 1204.07 Q2201.97 1204.42 2201.97 1206.05 L2201.97 1256.51 Q2201.97 1259.19 2203.29 1260.02 Q2204.6 1260.86 2210.36 1260.86 L2213.21 1260.86 L2213.21 1263.62 Q2210.05 1263.36 2198.63 1263.36 Q2187.21 1263.36 2184.09 1263.62 L2184.09 1260.86 L2186.95 1260.86 Q2192.61 1260.86 2193.98 1260.07 Q2195.34 1259.23 2195.34 1256.51 L2195.34 1209.91 Q2190.64 1212.29 2183.52 1212.29 Z" fill="#000000" fill-rule="nonzero" fill-opacity="1" /><path clip-path="url(#clip990)" d="M2217.57 1234.86 Q2217.57 1221.64 2220.91 1214.44 Q2225.56 1203.72 2236.54 1203.72 Q2238.87 1203.72 2241.29 1204.38 Q2243.75 1205 2246.82 1207.41 Q2249.94 1209.83 2251.83 1213.78 Q2255.43 1221.42 2255.43 1234.86 Q2255.43 1247.99 2252.09 1255.15 Q2247.22 1265.6 2236.46 1265.6 Q2232.42 1265.6 2228.29 1263.54 Q2224.2 1261.47 2221.61 1256.51 Q2217.57 1249.09 2217.57 1234.86 M2225.04 1233.76 Q2225.04 1247.33 2226 1252.73 Q2227.1 1258.57 2230.09 1261.12 Q2233.12 1263.62 2236.46 1263.62 Q2240.06 1263.62 2243.04 1260.95 Q2246.07 1258.22 2247 1252.38 Q2248.01 1246.63 2247.96 1233.76 Q2247.96 1221.24 2247.08 1216.24 Q2245.9 1210.4 2242.74 1208.07 Q2239.62 1205.7 2236.46 1205.7 Q2235.27 1205.7 2234 1206.05 Q2232.77 1206.4 2230.97 1207.41 Q2229.17 1208.42 2227.76 1210.92 Q2226.4 1213.43 2225.74 1217.2 Q2225.04 1222.08 2225.04 1233.76 Z" fill="#000000" fill-rule="nonzero" fill-opacity="1" /></svg>
